<svg xmlns="http://www.w3.org/2000/svg" xml:space="preserve" width="443.8959" height="232.1694" viewBox="0 0 253.5211 132.5983">
  <g stroke-width="10.793">
    <path d="M163.8031 48.959c.005-.278.0106-.5555.0106-.8346C163.8137 21.5462 142.2675 0 115.6892 0 92.7848 0 73.6196 16.0013 68.7584 37.4349c-4.5333-2.5375-9.7552-3.9912-15.32-3.9912-17.3635 0-31.4395 14.076-31.4395 31.4395 0 .7096.0322 1.4115.0783 2.1096C9.1864 71.7774 0 84.1848 0 98.7408c0 18.699 15.1585 33.8576 33.8576 33.8576h120.7508c23.3739 0 42.3221-18.9483 42.3221-42.3222 0-20.2156-14.1747-37.118-33.1274-41.3173z"/>
    <path d="M253.5211 78.4863c0 19.8533-16.0967 35.95-35.95 35.95H197.84c4.0118-7.1522 6.3034-15.392 6.3034-24.159 0-11.3415-3.9285-22.4278-11.0697-31.217-5.8317-7.1744-13.5887-12.5844-22.2392-15.5918-1.0043-11.9852-5.8483-22.8995-13.2836-31.5 7.1967-6.3255 16.635-10.1596 26.9667-10.1596 22.5721 0 40.8717 18.2996 40.8717 40.8772 0 .233-.0055.4717-.0055.7103 16.0968 3.5622 28.1374 17.9223 28.1374 35.09z"/>
  </g>
</svg>
