<?xml version="1.0" encoding="UTF-8" standalone="no"?>
<svg
   width="383.56805"
   height="184.9649"
   viewBox="0 0 383.56807 184.96491"
   version="1.1"
   id="svg1032"
   sodipodi:docname="devops.svg"
   inkscape:version="1.2.2 (732a01da63, 2022-12-09)"
   inkscape:export-filename="devops.svg"
   inkscape:export-xdpi="96"
   inkscape:export-ydpi="96"
   xmlns:inkscape="http://www.inkscape.org/namespaces/inkscape"
   xmlns:sodipodi="http://sodipodi.sourceforge.net/DTD/sodipodi-0.dtd"
   xmlns="http://www.w3.org/2000/svg"
   xmlns:svg="http://www.w3.org/2000/svg">
  <defs
     id="defs76" />
  <sodipodi:namedview
     id="namedview1034"
     pagecolor="#ffffff"
     bordercolor="#000000"
     borderopacity="0.25"
     inkscape:showpageshadow="2"
     inkscape:pageopacity="0.0"
     inkscape:pagecheckerboard="0"
     inkscape:deskcolor="#d1d1d1"
     showgrid="false"
     inkscape:zoom="1.7862231"
     inkscape:cx="338.70349"
     inkscape:cy="223.37635"
     inkscape:window-width="2560"
     inkscape:window-height="1369"
     inkscape:window-x="-8"
     inkscape:window-y="-8"
     inkscape:window-maximized="1"
     inkscape:current-layer="svg1032" />
  <g
     id="Group_1464"
     data-name="Group 1464"
     transform="translate(-512.7696,-2838.0584)"
     style="fill:#ffffff;stroke:none">
    <g
       id="Group_1454"
       data-name="Group 1454"
       transform="matrix(0.79510088,0,0,0.77999434,509.10985,2838.06)"
       style="fill:#000000;stroke:none">
      <g
         id="Group_1445"
         data-name="Group 1445"
         transform="translate(4.612)"
         style="fill:#000000;stroke:none">
        <g
           transform="translate(-90,-85)"
           filter="url(#Path_6722)"
           id="g953"
           style="fill:#000000;stroke:none">
          <path
             id="Path_6722-2"
             data-name="Path 6722"
             d="m -518.95,-402.3 h -35.6 c -11.357,7.647 -22.685,11.99 -34.634,11.99 a 69.736,69.736 0 0 1 -50.9,-21.977 v 33.421 h -35.329 a 118.232,118.232 0 0 0 86.226,37.19 c 26.781,0 49.919,-10.292 70.238,-25.584 z"
             transform="translate(797.76,663.81)"
             fill="#1723a3"
             style="fill:#000000;stroke:none" />
        </g>
        <g
           transform="translate(-90,-85)"
           filter="url(#Path_6723)"
           id="g956"
           style="fill:#000000;stroke:none">
          <path
             id="Path_6723-2"
             data-name="Path 6723"
             d="m -666.028,-464.522 v -34.626 h 0.3 a 69.606,69.606 0 0 1 -12.517,-39.928 69.718,69.718 0 0 1 20.927,-49.885 h -33.218 v -35.534 a 118.22,118.22 0 0 0 -36.343,85.419 118.063,118.063 0 0 0 26.379,74.554 z"
             transform="translate(816.87,742.65)"
             fill="#172192"
             style="fill:#000000;stroke:none" />
        </g>
        <g
           transform="translate(-90,-85)"
           filter="url(#Path_6724)"
           id="g959"
           style="fill:#000000;stroke:none">
          <path
             id="Path_6724-2"
             data-name="Path 6724"
             d="m -233.713,-653.924 h 6.827 v 35.457 c 11.035,-6.748 23.02,-10.138 38.121,-10.138 a 69.793,69.793 0 0 1 54.008,25.5 h 34.348 v -34.626 0 a 118.265,118.265 0 0 0 -88.358,-39.511 c -28.773,0 -51.033,9.915 -68.983,23.315 z"
             transform="translate(642.6,762.24)"
             fill="#1529cd"
             style="fill:#000000;stroke:none" />
        </g>
        <g
           transform="translate(-90,-85)"
           filter="url(#Path_6725)"
           id="g962"
           style="fill:#000000;stroke:none">
          <path
             id="Path_6725-2"
             data-name="Path 6725"
             d="m -658.312,-650.007 v 34.626 h 34.474 a 69.615,69.615 0 0 1 40.925,-13.224 c 21.409,0 36.185,7.1 51.107,20.757 v -32.731 h 32.665 c -20.465,-19.525 -47.006,-36.661 -83.772,-36.661 a 118.086,118.086 0 0 0 -75.608,27.233 z"
             transform="translate(791.48,762.24)"
             fill="#181f81"
             style="fill:#000000;stroke:none" />
        </g>
        <g
           transform="translate(-90,-85)"
           filter="url(#Path_6727)"
           id="g965"
           style="fill:#000000;stroke:none">
          <path
             id="Path_6727-2"
             data-name="Path 6727"
             d="m -25.623,-601.095 v 33.105 h -36.21 a 69.607,69.607 0 0 1 10.963,37.607 69.766,69.766 0 0 1 -23.937,52.677 v 34.264 h 34.614 a 118.242,118.242 0 0 0 37.958,-86.941 118.036,118.036 0 0 0 -23.388,-70.712 z"
             transform="translate(574.64,733.95)"
             fill="#172ee3"
             opacity="0.995"
             style="fill:#000000;stroke:none" />
        </g>
        <g
           transform="translate(-90,-85)"
           filter="url(#Path_6728)"
           id="g968"
           style="fill:#000000;stroke:none">
          <path
             id="Path_6728-2"
             data-name="Path 6728"
             d="m -151.815,-368.163 h -6.827 v -35.825 A 69.605,69.605 0 0 1 -197.814,-392 c -19.916,0 -37.76,-11.3 -52.476,-24.833 h -31.817 v 33.887 c 23.1,23.273 47.638,39.58 84.293,39.58 a 118.051,118.051 0 0 0 72.569,-24.8 z"
             transform="translate(651.65,665.5)"
             fill="#0f33ff"
             style="fill:#000000;stroke:none" />
        </g>
        <g
           transform="translate(-90,-85)"
           filter="url(#Path_6819)"
           id="g971"
           style="fill:#000000;stroke:none">
          <path
             id="Path_6819-2"
             data-name="Path 6819"
             d="m -1591.521,-775.179 c -3.984,-4.806 -8.013,-9.627 -11.939,-14.267 -5.99,-7.079 -12.589,-14.93 -20.038,-22.676 h -32.6 v 32.49 c 9.842,10.182 20.179,23.109 32.9,38.673 l 2.115,2.588 30.9,37.794 c 9.683,11.836 13.337,16.29 13.337,16.29 5.651,6.516 11.172,12.808 16.716,18.747 v -33.52 h 31.555 c -10.488,-10.775 -19.025,-21.994 -25.126,-29.536 0,0 -3.067,-3.86 -8.018,-10.022 z"
             transform="translate(1923.05,940.61)"
             fill="#111c6f"
             style="fill:#000000;stroke:none" />
        </g>
        <g
           transform="translate(-90,-85)"
           filter="url(#Path_6774)"
           id="g974"
           style="fill:#000000;stroke:none">
          <path
             id="Path_6774-2"
             data-name="Path 6774"
             d="m -359.4,-13.559 q 0.9,-1.187 1.8,-2.351 c 17.971,-23.308 31.555,-40.469 46.054,-51.492 v -33.363 h -32.568 c -12.651,10.952 -23.014,23.315 -32.055,34.259 -4.975,6.022 -9.236,11.3 -13.166,16.221 l -29.7,36.975 v 0 c -2.932,3.519 -6.1,7.279 -9.622,11.385 -13.965,16.3 -26.813,30.33 -39.41,40.7 h 33.3 V 75.35 C -417.194,60.692 -401.8,42.547 -388,24.655 Z"
             transform="translate(720.3,215.58)"
             fill="#1727b8"
             style="fill:#000000;stroke:none" />
        </g>
      </g>
      <g
         id="Group_1456"
         data-name="Group 1456"
         opacity="0"
         style="fill:#000000;stroke:none">
        <g
           id="Group_1446"
           data-name="Group 1446"
           transform="translate(93.394,19.175)"
           style="fill:#000000;stroke:none">
          <path
             id="Path_6729"
             data-name="Path 6729"
             d="m -589.062,-634.62 a 6.681,6.681 0 0 1 -2.62,-2.485 6.845,6.845 0 0 1 -0.953,-3.592 6.847,6.847 0 0 1 0.953,-3.592 6.689,6.689 0 0 1 2.62,-2.485 7.787,7.787 0 0 1 3.746,-0.9 7.856,7.856 0 0 1 3.168,0.616 6.358,6.358 0 0 1 2.379,1.772 l -2,1.849 a 4.308,4.308 0 0 0 -3.39,-1.579 4.507,4.507 0 0 0 -2.234,0.549 3.9,3.9 0 0 0 -1.531,1.532 4.5,4.5 0 0 0 -0.548,2.234 4.5,4.5 0 0 0 0.548,2.235 3.909,3.909 0 0 0 1.531,1.531 4.5,4.5 0 0 0 2.234,0.549 4.284,4.284 0 0 0 3.39,-1.6 l 2,1.85 a 6.249,6.249 0 0 1 -2.389,1.791 7.928,7.928 0 0 1 -3.178,0.617 7.745,7.745 0 0 1 -3.726,-0.892 z"
             transform="translate(592.635,648.247)"
             fill="#fff"
             style="fill:#000000;stroke:none" />
          <path
             id="Path_6730"
             data-name="Path 6730"
             d="m -564.419,-631.706 a 5.08,5.08 0 0 1 -2.032,-1.9 5.22,5.22 0 0 1 -0.732,-2.754 5.224,5.224 0 0 1 0.732,-2.754 5.088,5.088 0 0 1 2.032,-1.9 6.22,6.22 0 0 1 2.937,-0.683 6.163,6.163 0 0 1 2.928,0.683 5.106,5.106 0 0 1 2.022,1.9 5.228,5.228 0 0 1 0.732,2.754 5.224,5.224 0 0 1 -0.732,2.754 5.1,5.1 0 0 1 -2.022,1.9 6.149,6.149 0 0 1 -2.928,0.684 6.207,6.207 0 0 1 -2.937,-0.684 z m 4.835,-2.561 a 2.909,2.909 0 0 0 0.742,-2.09 2.906,2.906 0 0 0 -0.742,-2.089 2.5,2.5 0 0 0 -1.9,-0.78 2.531,2.531 0 0 0 -1.907,0.78 2.883,2.883 0 0 0 -0.751,2.089 2.887,2.887 0 0 0 0.751,2.09 2.535,2.535 0 0 0 1.907,0.78 2.5,2.5 0 0 0 1.9,-0.781 z"
             transform="translate(580.801,645.469)"
             fill="#fff"
             style="fill:#000000;stroke:none" />
          <path
             id="Path_6731"
             data-name="Path 6731"
             d="m -532.244,-648.75 v 14.292 h -2.87 v -1.194 a 3.961,3.961 0 0 1 -3.236,1.348 5.374,5.374 0 0 1 -2.648,-0.655 4.685,4.685 0 0 1 -1.859,-1.868 5.694,5.694 0 0 1 -0.674,-2.812 5.7,5.7 0 0 1 0.674,-2.812 4.693,4.693 0 0 1 1.857,-1.869 5.387,5.387 0 0 1 2.648,-0.654 3.941,3.941 0 0 1 3.1,1.251 v -5.027 z m -3.7,11.2 a 2.888,2.888 0 0 0 0.751,-2.09 2.884,2.884 0 0 0 -0.751,-2.089 2.509,2.509 0 0 0 -1.888,-0.78 2.532,2.532 0 0 0 -1.907,0.78 2.884,2.884 0 0 0 -0.751,2.089 2.887,2.887 0 0 0 0.751,2.09 2.536,2.536 0 0 0 1.907,0.78 2.513,2.513 0 0 0 1.89,-0.779 z"
             transform="translate(569.803,648.75)"
             fill="#fff"
             style="fill:#000000;stroke:none" />
          <path
             id="Path_6732"
             data-name="Path 6732"
             d="m -507.829,-635.511 h -7.839 a 2.442,2.442 0 0 0 1,1.522 3.317,3.317 0 0 0 1.965,0.558 3.967,3.967 0 0 0 1.435,-0.241 3.476,3.476 0 0 0 1.165,-0.761 l 1.6,1.734 a 5.371,5.371 0 0 1 -4.276,1.676 6.757,6.757 0 0 1 -3.1,-0.684 5.008,5.008 0 0 1 -2.08,-1.9 5.224,5.224 0 0 1 -0.732,-2.754 5.3,5.3 0 0 1 0.722,-2.745 5.069,5.069 0 0 1 1.984,-1.907 5.831,5.831 0 0 1 2.822,-0.683 5.784,5.784 0 0 1 2.754,0.654 4.785,4.785 0 0 1 1.936,1.878 5.6,5.6 0 0 1 0.7,2.841 q 0.002,0.061 -0.056,0.812 z m -7.03,-3.332 a 2.461,2.461 0 0 0 -0.847,1.579 h 5.1 a 2.486,2.486 0 0 0 -0.848,-1.57 2.533,2.533 0 0 0 -1.695,-0.588 2.59,2.59 0 0 0 -1.71,0.579 z"
             transform="translate(558.254,645.469)"
             fill="#fff"
             style="fill:#000000;stroke:none" />
        </g>
        <g
           id="Group_1447"
           data-name="Group 1447"
           transform="rotate(85,-33.24456,68.519844)"
           style="fill:#000000;stroke:none">
          <path
             id="Path_6733"
             data-name="Path 6733"
             d="m -722.189,-492.979 a 3.461,3.461 0 0 1 0.672,2.165 3.2,3.2 0 0 1 -1.414,2.8 7.228,7.228 0 0 1 -4.123,0.979 h -7.159 v -13.843 h 6.763 a 6.62,6.62 0 0 1 3.886,0.969 3.068,3.068 0 0 1 1.355,2.63 3.374,3.374 0 0 1 -0.484,1.8 3.388,3.388 0 0 1 -1.354,1.246 3.655,3.655 0 0 1 1.858,1.254 z m -8.84,-5.488 v 3.263 h 3.184 a 3.215,3.215 0 0 0 1.8,-0.415 1.385,1.385 0 0 0 0.613,-1.226 1.361,1.361 0 0 0 -0.613,-1.216 3.282,3.282 0 0 0 -1.8,-0.405 z m 5.646,8.6 a 1.422,1.422 0 0 0 0.643,-1.285 q 0,-1.72 -2.551,-1.72 h -3.738 v 3.421 h 3.738 a 3.551,3.551 0 0 0 1.908,-0.413 z"
             transform="translate(734.213,502.599)"
             fill="#fff"
             style="fill:#000000;stroke:none" />
          <path
             id="Path_6734"
             data-name="Path 6734"
             d="m -696.4,-495.047 v 10.639 h -2.927 v -1.266 a 4.085,4.085 0 0 1 -1.463,1.058 4.6,4.6 0 0 1 -1.839,0.366 4.531,4.531 0 0 1 -3.323,-1.206 4.808,4.808 0 0 1 -1.226,-3.579 v -6.012 h 3.085 v 5.557 q 0,2.571 2.156,2.571 a 2.318,2.318 0 0 0 1.78,-0.722 3.047,3.047 0 0 0 0.672,-2.146 v -5.26 z"
             transform="translate(722.028,499.971)"
             fill="#fff"
             style="fill:#000000;stroke:none" />
          <path
             id="Path_6735"
             data-name="Path 6735"
             d="m -682.487,-501.064 a 1.605,1.605 0 0 1 -0.534,-1.227 1.6,1.6 0 0 1 0.534,-1.226 1.96,1.96 0 0 1 1.384,-0.494 2,2 0 0 1 1.384,0.475 1.52,1.52 0 0 1 0.534,1.186 1.679,1.679 0 0 1 -0.534,1.276 1.934,1.934 0 0 1 -1.384,0.5 1.957,1.957 0 0 1 -1.384,-0.49 z m -0.158,1.977 h 3.085 v 10.639 h -3.085 z"
             transform="translate(711.142,504.011)"
             fill="#fff"
             style="fill:#000000;stroke:none" />
          <path
             id="Path_6736"
             data-name="Path 6736"
             d="m -671.5,-502.391 h 3.085 v 14.674 h -3.085 z"
             transform="translate(705.95,503.281)"
             fill="#fff"
             style="fill:#000000;stroke:none" />
          <path
             id="Path_6737"
             data-name="Path 6737"
             d="m -650.445,-502.391 v 14.674 h -2.946 v -1.226 a 4.067,4.067 0 0 1 -3.322,1.384 5.519,5.519 0 0 1 -2.719,-0.672 4.808,4.808 0 0 1 -1.908,-1.918 5.841,5.841 0 0 1 -0.692,-2.887 5.844,5.844 0 0 1 0.692,-2.887 4.815,4.815 0 0 1 1.908,-1.918 5.531,5.531 0 0 1 2.719,-0.672 4.047,4.047 0 0 1 3.184,1.285 v -5.161 z m -3.8,11.5 a 2.962,2.962 0 0 0 0.771,-2.146 2.963,2.963 0 0 0 -0.771,-2.146 2.578,2.578 0 0 0 -1.938,-0.8 2.6,2.6 0 0 0 -1.958,0.8 2.963,2.963 0 0 0 -0.771,2.146 2.962,2.962 0 0 0 0.771,2.146 2.6,2.6 0 0 0 1.958,0.8 2.578,2.578 0 0 0 1.942,-0.8 z"
             transform="translate(701.683,503.281)"
             fill="#fff"
             style="fill:#000000;stroke:none" />
        </g>
        <g
           id="Group_1448"
           data-name="Group 1448"
           transform="matrix(0.588,-0.809,0.809,0.588,222.124,136.734)"
           style="fill:#000000;stroke:none">
          <path
             id="Path_6738"
             data-name="Path 6738"
             d="m -400.735,-487.982 -2.487,-3.593 h -2.745 v 3.593 h -2.985 v -12.9 h 5.582 a 7.172,7.172 0 0 1 2.975,0.571 4.421,4.421 0 0 1 1.944,1.621 4.467,4.467 0 0 1 0.682,2.487 4.377,4.377 0 0 1 -0.691,2.478 4.378,4.378 0 0 1 -1.962,1.594 l 2.893,4.145 z m -0.755,-9.884 a 3.134,3.134 0 0 0 -2.045,-0.58 h -2.432 v 4.5 h 2.432 a 3.1,3.1 0 0 0 2.045,-0.59 2.048,2.048 0 0 0 0.7,-1.658 2.043,2.043 0 0 0 -0.7,-1.673 z"
             transform="translate(408.952,501.653)"
             fill="#fff"
             style="fill:#000000;stroke:none" />
          <path
             id="Path_6739"
             data-name="Path 6739"
             d="m -373.938,-489.421 h -7.5 a 2.33,2.33 0 0 0 0.958,1.455 3.17,3.17 0 0 0 1.88,0.534 3.8,3.8 0 0 0 1.372,-0.23 3.332,3.332 0 0 0 1.115,-0.728 l 1.529,1.658 a 5.138,5.138 0 0 1 -4.09,1.6 6.462,6.462 0 0 1 -2.966,-0.654 4.792,4.792 0 0 1 -1.99,-1.815 5,5 0 0 1 -0.7,-2.635 5.073,5.073 0 0 1 0.691,-2.625 4.841,4.841 0 0 1 1.9,-1.824 5.579,5.579 0 0 1 2.7,-0.654 5.532,5.532 0 0 1 2.635,0.626 4.58,4.58 0 0 1 1.852,1.8 5.357,5.357 0 0 1 0.672,2.717 q -0.003,0.057 -0.058,0.775 z m -6.725,-3.187 a 2.356,2.356 0 0 0 -0.811,1.511 h 4.883 a 2.382,2.382 0 0 0 -0.811,-1.5 2.424,2.424 0 0 0 -1.621,-0.562 2.477,2.477 0 0 0 -1.64,0.551 z"
             transform="translate(396.93,498.946)"
             fill="#fff"
             style="fill:#000000;stroke:none" />
          <path
             id="Path_6740"
             data-name="Path 6740"
             d="m -360.173,-502.391 h 2.874 v 13.67 h -2.874 z"
             transform="translate(385.137,502.391)"
             fill="#fff"
             style="fill:#000000;stroke:none" />
          <path
             id="Path_6741"
             data-name="Path 6741"
             d="m -340.386,-489.421 h -7.5 a 2.332,2.332 0 0 0 0.958,1.455 3.169,3.169 0 0 0 1.879,0.534 3.806,3.806 0 0 0 1.373,-0.23 3.324,3.324 0 0 0 1.115,-0.728 l 1.529,1.658 a 5.139,5.139 0 0 1 -4.09,1.6 6.464,6.464 0 0 1 -2.966,-0.654 4.8,4.8 0 0 1 -1.99,-1.815 5,5 0 0 1 -0.7,-2.635 5.068,5.068 0 0 1 0.691,-2.625 4.84,4.84 0 0 1 1.9,-1.824 5.577,5.577 0 0 1 2.7,-0.654 5.532,5.532 0 0 1 2.635,0.626 4.575,4.575 0 0 1 1.852,1.8 5.358,5.358 0 0 1 0.672,2.717 q -0.003,0.057 -0.058,0.775 z m -6.725,-3.187 a 2.354,2.354 0 0 0 -0.811,1.511 h 4.882 a 2.378,2.378 0 0 0 -0.811,-1.5 2.422,2.422 0 0 0 -1.621,-0.562 2.475,2.475 0 0 0 -1.639,0.551 z"
             transform="translate(380.549,498.946)"
             fill="#fff"
             style="fill:#000000;stroke:none" />
          <path
             id="Path_6742"
             data-name="Path 6742"
             d="m -320.241,-494.238 a 4.2,4.2 0 0 1 1.234,3.308 v 5.656 h -2.69 v -1.234 a 3.2,3.2 0 0 1 -3.021,1.382 4.7,4.7 0 0 1 -1.981,-0.386 2.958,2.958 0 0 1 -1.28,-1.069 2.78,2.78 0 0 1 -0.442,-1.548 2.583,2.583 0 0 1 1.041,-2.174 5.3,5.3 0 0 1 3.215,-0.792 h 2.285 a 1.832,1.832 0 0 0 -0.571,-1.446 2.516,2.516 0 0 0 -1.713,-0.507 5.016,5.016 0 0 0 -1.557,0.249 4.119,4.119 0 0 0 -1.3,0.672 l -1.032,-2.008 a 6.247,6.247 0 0 1 1.944,-0.884 8.725,8.725 0 0 1 2.331,-0.313 5.161,5.161 0 0 1 3.537,1.094 z m -2.45,6.835 a 1.865,1.865 0 0 0 0.811,-1 v -1.013 h -1.971 q -1.769,0 -1.769,1.161 a 1.033,1.033 0 0 0 0.433,0.875 1.947,1.947 0 0 0 1.188,0.322 2.5,2.5 0 0 0 1.308,-0.342 z"
             transform="translate(369.634,498.946)"
             fill="#fff"
             style="fill:#000000;stroke:none" />
          <path
             id="Path_6743"
             data-name="Path 6743"
             d="m -304.942,-485.432 a 6.293,6.293 0 0 1 -1.879,-0.765 l 0.958,-2.063 a 6,6 0 0 0 1.6,0.691 6.718,6.718 0 0 0 1.842,0.267 q 1.824,0 1.824,-0.9 a 0.639,0.639 0 0 0 -0.5,-0.608 7.366,7.366 0 0 0 -1.529,-0.313 14.675,14.675 0 0 1 -2.008,-0.424 3.11,3.11 0 0 1 -1.366,-0.853 2.409,2.409 0 0 1 -0.58,-1.732 2.714,2.714 0 0 1 0.544,-1.667 3.5,3.5 0 0 1 1.584,-1.133 6.767,6.767 0 0 1 2.46,-0.405 9.651,9.651 0 0 1 2.091,0.23 5.873,5.873 0 0 1 1.723,0.636 l -0.958,2.046 a 5.72,5.72 0 0 0 -2.856,-0.737 2.912,2.912 0 0 0 -1.382,0.258 0.759,0.759 0 0 0 -0.461,0.663 0.658,0.658 0 0 0 0.5,0.645 8.81,8.81 0 0 0 1.584,0.35 17.187,17.187 0 0 1 1.99,0.433 2.994,2.994 0 0 1 1.345,0.838 2.382,2.382 0 0 1 0.571,1.7 2.616,2.616 0 0 1 -0.553,1.64 3.529,3.529 0 0 1 -1.612,1.115 7.185,7.185 0 0 1 -2.515,0.4 9.628,9.628 0 0 1 -2.417,-0.312 z"
             transform="translate(359.088,498.946)"
             fill="#fff"
             style="fill:#000000;stroke:none" />
          <path
             id="Path_6744"
             data-name="Path 6744"
             d="m -276.883,-489.421 h -7.5 a 2.333,2.333 0 0 0 0.958,1.455 3.169,3.169 0 0 0 1.879,0.534 3.806,3.806 0 0 0 1.373,-0.23 3.325,3.325 0 0 0 1.115,-0.728 l 1.529,1.658 a 5.139,5.139 0 0 1 -4.09,1.6 6.464,6.464 0 0 1 -2.966,-0.654 4.794,4.794 0 0 1 -1.99,-1.815 5,5 0 0 1 -0.7,-2.635 5.068,5.068 0 0 1 0.691,-2.625 4.841,4.841 0 0 1 1.9,-1.824 5.577,5.577 0 0 1 2.7,-0.654 5.532,5.532 0 0 1 2.635,0.626 4.576,4.576 0 0 1 1.852,1.8 5.358,5.358 0 0 1 0.672,2.717 q -0.003,0.057 -0.058,0.775 z m -6.725,-3.187 a 2.354,2.354 0 0 0 -0.811,1.511 h 4.882 a 2.378,2.378 0 0 0 -0.811,-1.5 2.423,2.423 0 0 0 -1.621,-0.562 2.475,2.475 0 0 0 -1.639,0.551 z"
             transform="translate(349.545,498.946)"
             fill="#fff"
             style="fill:#000000;stroke:none" />
        </g>
        <g
           id="Group_1449"
           data-name="Group 1449"
           transform="rotate(45,34.879657,270.10063)"
           style="fill:#000000;stroke:none">
          <path
             id="Path_6745"
             data-name="Path 6745"
             d="m -429.839,-568.978 a 4.279,4.279 0 0 1 1.88,1.568 4.321,4.321 0 0 1 0.659,2.41 4.331,4.331 0 0 1 -0.659,2.4 4.2,4.2 0 0 1 -1.88,1.568 7.028,7.028 0 0 1 -2.877,0.543 h -2.512 v 3.439 h -2.886 v -12.48 h 5.4 a 6.936,6.936 0 0 1 2.875,0.552 z m -1.06,5.568 a 1.953,1.953 0 0 0 0.677,-1.595 1.976,1.976 0 0 0 -0.677,-1.612 3.034,3.034 0 0 0 -1.978,-0.561 h -2.352 v 4.33 h 2.352 a 3.031,3.031 0 0 0 1.977,-0.562 z"
             transform="translate(438.115,570.278)"
             fill="#fff"
             style="fill:#000000;stroke:none" />
          <path
             id="Path_6746"
             data-name="Path 6746"
             d="m -412.159,-571.042 h 2.78 v 13.22 h -2.78 z"
             transform="translate(425.005,571.042)"
             fill="#fff"
             style="fill:#000000;stroke:none" />
          <path
             id="Path_6747"
             data-name="Path 6747"
             d="m -394.672,-562.925 a 4.057,4.057 0 0 1 1.194,3.2 v 5.469 h -2.6 v -1.194 a 3.1,3.1 0 0 1 -2.922,1.335 4.535,4.535 0 0 1 -1.915,-0.374 2.857,2.857 0 0 1 -1.238,-1.034 2.686,2.686 0 0 1 -0.428,-1.5 2.5,2.5 0 0 1 1.007,-2.1 5.133,5.133 0 0 1 3.109,-0.766 h 2.209 a 1.772,1.772 0 0 0 -0.552,-1.4 2.435,2.435 0 0 0 -1.657,-0.489 4.851,4.851 0 0 0 -1.506,0.24 4,4 0 0 0 -1.256,0.65 l -1,-1.942 a 6.043,6.043 0 0 1 1.88,-0.855 8.441,8.441 0 0 1 2.254,-0.3 4.991,4.991 0 0 1 3.421,1.06 z m -2.37,6.61 a 1.8,1.8 0 0 0 0.784,-0.971 v -0.98 h -1.906 q -1.711,0 -1.711,1.122 a 1,1 0 0 0 0.419,0.846 1.882,1.882 0 0 0 1.149,0.312 2.416,2.416 0 0 0 1.265,-0.329 z"
             transform="translate(420.168,567.478)"
             fill="#fff"
             style="fill:#000000;stroke:none" />
          <path
             id="Path_6748"
             data-name="Path 6748"
             d="m -370.407,-562.917 a 4.24,4.24 0 0 1 1.1,3.172 v 5.487 h -2.779 v -5.06 a 2.5,2.5 0 0 0 -0.5,-1.7 1.83,1.83 0 0 0 -1.443,-0.561 2.21,2.21 0 0 0 -1.675,0.65 2.691,2.691 0 0 0 -0.624,1.933 v 4.739 h -2.779 v -9.586 h 2.655 v 1.122 a 3.7,3.7 0 0 1 1.372,-0.935 4.788,4.788 0 0 1 1.8,-0.329 3.945,3.945 0 0 1 2.873,1.068 z"
             transform="translate(408.313,567.478)"
             fill="#fff"
             style="fill:#000000;stroke:none" />
        </g>
        <g
           id="Group_1450"
           data-name="Group 1450"
           transform="rotate(14,122.58976,1487.3667)"
           style="fill:#000000;stroke:none">
          <path
             id="Path_6749"
             data-name="Path 6749"
             d="m -185.278,-647.238 h 5.709 a 8.017,8.017 0 0 1 3.617,0.781 5.853,5.853 0 0 1 2.441,2.2 6.187,6.187 0 0 1 0.871,3.3 6.184,6.184 0 0 1 -0.871,3.3 5.843,5.843 0 0 1 -2.441,2.2 8.024,8.024 0 0 1 -3.617,0.781 h -5.709 z m 5.565,10.179 a 4.223,4.223 0 0 0 3.007,-1.05 3.708,3.708 0 0 0 1.122,-2.845 3.71,3.71 0 0 0 -1.122,-2.845 4.223,4.223 0 0 0 -3.007,-1.05 h -2.657 v 7.791 z"
             transform="translate(185.278,647.992)"
             fill="#fff"
             style="fill:#000000;stroke:none" />
          <path
             id="Path_6750"
             data-name="Path 6750"
             d="m -147.253,-635.931 h -7.306 a 2.273,2.273 0 0 0 0.933,1.419 3.09,3.09 0 0 0 1.831,0.52 3.7,3.7 0 0 0 1.337,-0.224 3.25,3.25 0 0 0 1.086,-0.709 l 1.49,1.616 a 5.007,5.007 0 0 1 -3.985,1.562 6.3,6.3 0 0 1 -2.89,-0.637 4.666,4.666 0 0 1 -1.939,-1.768 4.865,4.865 0 0 1 -0.682,-2.567 4.938,4.938 0 0 1 0.673,-2.558 4.721,4.721 0 0 1 1.849,-1.777 5.432,5.432 0 0 1 2.63,-0.637 5.393,5.393 0 0 1 2.567,0.61 4.466,4.466 0 0 1 1.8,1.751 5.218,5.218 0 0 1 0.655,2.648 q 0.004,0.051 -0.049,0.751 z m -6.552,-3.106 a 2.293,2.293 0 0 0 -0.79,1.472 h 4.757 a 2.322,2.322 0 0 0 -0.79,-1.463 2.362,2.362 0 0 0 -1.58,-0.548 2.413,2.413 0 0 0 -1.598,0.54 z"
             transform="translate(171.291,645.212)"
             fill="#fff"
             style="fill:#000000;stroke:none" />
          <path
             id="Path_6751"
             data-name="Path 6751"
             d="m -125.063,-641.074 a 4.451,4.451 0 0 1 1.732,1.742 5.262,5.262 0 0 1 0.628,2.611 5.263,5.263 0 0 1 -0.628,2.612 4.449,4.449 0 0 1 -1.732,1.741 4.923,4.923 0 0 1 -2.45,0.619 3.729,3.729 0 0 1 -2.908,-1.166 v 4.505 h -2.8 v -13.14 h 2.675 v 1.113 a 3.715,3.715 0 0 1 3.034,-1.256 4.922,4.922 0 0 1 2.449,0.619 z m -1.167,6.3 a 2.712,2.712 0 0 0 0.692,-1.948 2.708,2.708 0 0 0 -0.692,-1.947 2.33,2.33 0 0 0 -1.77,-0.731 2.329,2.329 0 0 0 -1.768,0.727 2.706,2.706 0 0 0 -0.691,1.947 2.709,2.709 0 0 0 0.691,1.948 2.332,2.332 0 0 0 1.768,0.727 2.334,2.334 0 0 0 1.769,-0.722 z"
             transform="translate(159.181,645.212)"
             fill="#fff"
             style="fill:#000000;stroke:none" />
          <path
             id="Path_6752"
             data-name="Path 6752"
             d="m -108.383,-648.75 h 2.8 v 13.32 h -2.8 z"
             transform="translate(146.727,648.75)"
             fill="#fff"
             style="fill:#000000;stroke:none" />
          <path
             id="Path_6753"
             data-name="Path 6753"
             d="m -96.411,-632.385 a 4.731,4.731 0 0 1 -1.894,-1.768 4.865,4.865 0 0 1 -0.682,-2.567 4.869,4.869 0 0 1 0.682,-2.567 4.738,4.738 0 0 1 1.894,-1.768 5.8,5.8 0 0 1 2.738,-0.637 5.745,5.745 0 0 1 2.729,0.637 4.759,4.759 0 0 1 1.885,1.768 4.873,4.873 0 0 1 0.682,2.567 4.87,4.87 0 0 1 -0.682,2.567 4.752,4.752 0 0 1 -1.885,1.768 5.733,5.733 0 0 1 -2.729,0.637 5.783,5.783 0 0 1 -2.738,-0.637 z m 4.506,-2.387 a 2.711,2.711 0 0 0 0.691,-1.948 2.708,2.708 0 0 0 -0.691,-1.947 2.33,2.33 0 0 0 -1.768,-0.727 2.359,2.359 0 0 0 -1.777,0.727 2.687,2.687 0 0 0 -0.7,1.947 2.691,2.691 0 0 0 0.7,1.948 2.363,2.363 0 0 0 1.777,0.727 2.334,2.334 0 0 0 1.768,-0.728 z"
             transform="translate(142.017,645.212)"
             fill="#fff"
             style="fill:#000000;stroke:none" />
          <path
             id="Path_6754"
             data-name="Path 6754"
             d="m -66.4,-641.406 -4.362,10.25 a 5.046,5.046 0 0 1 -1.643,2.352 4.024,4.024 0 0 1 -2.361,0.682 4.916,4.916 0 0 1 -1.49,-0.233 3.3,3.3 0 0 1 -1.2,-0.647 l 1.023,-1.992 a 2.42,2.42 0 0 0 0.745,0.449 2.33,2.33 0 0 0 0.835,0.161 1.484,1.484 0 0 0 0.933,-0.278 2.369,2.369 0 0 0 0.646,-0.924 l 0.036,-0.09 -4.183,-9.73 h 2.89 l 2.711,6.552 2.729,-6.552 z"
             transform="translate(131.224,645.068)"
             fill="#fff"
             style="fill:#000000;stroke:none" />
        </g>
        <g
           id="Group_1451"
           data-name="Group 1451"
           transform="rotate(-81,323.54028,-171.35119)"
           style="fill:#000000;stroke:none">
          <path
             id="Path_6755"
             data-name="Path 6755"
             d="m -70.395,-490.39 a 5.624,5.624 0 0 1 -2.21,-2.089 5.7,5.7 0 0 1 -0.8,-2.992 5.7,5.7 0 0 1 0.8,-2.992 5.623,5.623 0 0 1 2.21,-2.089 6.59,6.59 0 0 1 3.17,-0.758 6.545,6.545 0 0 1 3.161,0.758 5.7,5.7 0 0 1 2.21,2.089 5.659,5.659 0 0 1 0.807,2.992 5.659,5.659 0 0 1 -0.807,2.992 5.7,5.7 0 0 1 -2.21,2.089 6.545,6.545 0 0 1 -3.161,0.758 6.591,6.591 0 0 1 -3.17,-0.758 z m 4.976,-1.928 a 3.3,3.3 0 0 0 1.266,-1.282 3.77,3.77 0 0 0 0.46,-1.871 3.77,3.77 0 0 0 -0.46,-1.871 3.3,3.3 0 0 0 -1.266,-1.282 3.584,3.584 0 0 0 -1.807,-0.46 3.582,3.582 0 0 0 -1.807,0.46 3.3,3.3 0 0 0 -1.266,1.282 3.77,3.77 0 0 0 -0.46,1.871 3.77,3.77 0 0 0 0.46,1.871 3.3,3.3 0 0 0 1.266,1.282 3.581,3.581 0 0 0 1.807,0.46 3.584,3.584 0 0 0 1.807,-0.46 z"
             transform="translate(73.403,501.31)"
             fill="#fff"
             style="fill:#000000;stroke:none" />
          <path
             id="Path_6756"
             data-name="Path 6756"
             d="m -34.5,-494.778 a 4,4 0 0 1 1.557,1.565 4.728,4.728 0 0 1 0.565,2.347 4.728,4.728 0 0 1 -0.565,2.347 4,4 0 0 1 -1.557,1.565 4.423,4.423 0 0 1 -2.2,0.556 3.351,3.351 0 0 1 -2.613,-1.048 v 4.049 H -41.83 V -495.2 h 2.4 v 1 a 3.337,3.337 0 0 1 2.726,-1.129 4.423,4.423 0 0 1 2.204,0.551 z m -1.049,5.662 a 2.435,2.435 0 0 0 0.621,-1.75 2.435,2.435 0 0 0 -0.621,-1.75 2.1,2.1 0 0 0 -1.588,-0.653 2.1,2.1 0 0 0 -1.589,0.653 2.433,2.433 0 0 0 -0.621,1.75 2.433,2.433 0 0 0 0.621,1.75 2.1,2.1 0 0 0 1.589,0.653 2.1,2.1 0 0 0 1.588,-0.653 z"
             transform="translate(55.978,498.012)"
             fill="#fff"
             style="fill:#000000;stroke:none" />
          <path
             id="Path_6757"
             data-name="Path 6757"
             d="M -9.335,-490.156 H -15.9 a 2.043,2.043 0 0 0 0.839,1.274 2.778,2.778 0 0 0 1.645,0.468 3.332,3.332 0 0 0 1.2,-0.2 2.91,2.91 0 0 0 0.976,-0.637 l 1.34,1.451 a 4.5,4.5 0 0 1 -3.581,1.4 5.664,5.664 0 0 1 -2.6,-0.573 4.2,4.2 0 0 1 -1.742,-1.589 4.374,4.374 0 0 1 -0.613,-2.307 4.435,4.435 0 0 1 0.6,-2.3 4.238,4.238 0 0 1 1.661,-1.6 4.878,4.878 0 0 1 2.363,-0.573 4.84,4.84 0 0 1 2.307,0.548 4.005,4.005 0 0 1 1.621,1.573 4.69,4.69 0 0 1 0.589,2.379 q 0.009,0.057 -0.04,0.686 z m -5.887,-2.791 a 2.06,2.06 0 0 0 -0.71,1.323 h 4.274 a 2.081,2.081 0 0 0 -0.71,-1.315 2.121,2.121 0 0 0 -1.419,-0.492 2.167,2.167 0 0 0 -1.435,0.484 z"
             transform="translate(43.062,498.012)"
             fill="#fff"
             style="fill:#000000;stroke:none" />
          <path
             id="Path_6758"
             data-name="Path 6758"
             d="m 9.345,-495.011 a 4.518,4.518 0 0 1 1.766,-0.323 v 2.323 q -0.419,-0.032 -0.565,-0.032 a 2.306,2.306 0 0 0 -1.694,0.6 2.443,2.443 0 0 0 -0.613,1.815 v 4.1 H 5.724 v -8.672 h 2.4 v 1.145 a 2.8,2.8 0 0 1 1.221,-0.956 z"
             transform="translate(29.729,498.012)"
             fill="#fff"
             style="fill:#000000;stroke:none" />
          <path
             id="Path_6759"
             data-name="Path 6759"
             d="m 26.89,-494.374 a 3.673,3.673 0 0 1 1.081,2.9 v 4.952 h -2.355 v -1.081 a 2.8,2.8 0 0 1 -2.646,1.21 4.1,4.1 0 0 1 -1.734,-0.339 2.585,2.585 0 0 1 -1.121,-0.936 2.438,2.438 0 0 1 -0.387,-1.355 2.26,2.26 0 0 1 0.911,-1.9 4.642,4.642 0 0 1 2.814,-0.694 h 2 a 1.6,1.6 0 0 0 -0.5,-1.266 2.2,2.2 0 0 0 -1.5,-0.444 4.381,4.381 0 0 0 -1.363,0.218 3.607,3.607 0 0 0 -1.137,0.589 l -0.9,-1.758 a 5.452,5.452 0 0 1 1.7,-0.774 7.62,7.62 0 0 1 2.04,-0.274 4.516,4.516 0 0 1 3.097,0.952 z m -2.145,5.984 a 1.633,1.633 0 0 0 0.71,-0.879 v -0.887 h -1.726 q -1.548,0 -1.548,1.016 a 0.9,0.9 0 0 0 0.379,0.766 1.708,1.708 0 0 0 1.041,0.282 2.191,2.191 0 0 0 1.144,-0.298 z"
             transform="translate(21.999,498.012)"
             fill="#fff"
             style="fill:#000000;stroke:none" />
          <path
             id="Path_6760"
             data-name="Path 6760"
             d="m 47.525,-489.152 a 2.585,2.585 0 0 1 -0.911,0.411 4.628,4.628 0 0 1 -1.137,0.137 3.378,3.378 0 0 1 -2.4,-0.79 3.024,3.024 0 0 1 -0.847,-2.323 v -3.565 H 40.9 v -1.936 h 1.339 v -2.113 h 2.516 v 2.113 h 2.161 v 1.936 h -2.165 v 3.532 a 1.185,1.185 0 0 0 0.282,0.847 1.046,1.046 0 0 0 0.8,0.3 1.617,1.617 0 0 0 1.016,-0.323 z"
             transform="translate(10.316,500.217)"
             fill="#fff"
             style="fill:#000000;stroke:none" />
          <path
             id="Path_6761"
             data-name="Path 6761"
             d="m 65.906,-490.156 h -6.565 a 2.044,2.044 0 0 0 0.838,1.274 2.778,2.778 0 0 0 1.646,0.468 3.334,3.334 0 0 0 1.2,-0.2 2.913,2.913 0 0 0 0.975,-0.637 l 1.339,1.452 a 4.5,4.5 0 0 1 -3.581,1.4 5.666,5.666 0 0 1 -2.6,-0.573 4.2,4.2 0 0 1 -1.742,-1.589 4.374,4.374 0 0 1 -0.613,-2.307 4.439,4.439 0 0 1 0.6,-2.3 4.241,4.241 0 0 1 1.661,-1.6 4.879,4.879 0 0 1 2.363,-0.573 4.838,4.838 0 0 1 2.306,0.548 4,4 0 0 1 1.621,1.573 4.69,4.69 0 0 1 0.589,2.379 q 0.012,0.056 -0.037,0.685 z m -5.887,-2.791 a 2.056,2.056 0 0 0 -0.71,1.323 h 4.274 a 2.085,2.085 0 0 0 -0.71,-1.315 2.123,2.123 0 0 0 -1.419,-0.492 2.166,2.166 0 0 0 -1.435,0.484 z"
             transform="translate(1.533,498.012)"
             fill="#fff"
             style="fill:#000000;stroke:none" />
        </g>
        <g
           id="Group_1452"
           data-name="Group 1452"
           transform="rotate(14,-621.52962,1386.0758)"
           style="fill:#000000;stroke:none">
          <path
             id="Path_6762"
             data-name="Path 6762"
             d="m -233.123,-353.544 -0.018,-7.359 -3.609,6.062 h -1.279 l -3.592,-5.9 v 7.2 h -2.663 v -12.265 h 2.348 l 4.59,7.622 4.52,-7.622 h 2.33 l 0.036,12.265 z"
             transform="translate(244.284,367.333)"
             fill="#fff"
             style="fill:#000000;stroke:none" />
          <path
             id="Path_6763"
             data-name="Path 6763"
             d="m -209.226,-351.18 a 4.624,4.624 0 0 1 -1.848,-1.726 4.751,4.751 0 0 1 -0.666,-2.506 4.751,4.751 0 0 1 0.666,-2.505 4.624,4.624 0 0 1 1.848,-1.726 5.657,5.657 0 0 1 2.672,-0.622 5.606,5.606 0 0 1 2.663,0.622 4.642,4.642 0 0 1 1.84,1.726 4.755,4.755 0 0 1 0.666,2.505 4.756,4.756 0 0 1 -0.666,2.506 4.642,4.642 0 0 1 -1.84,1.726 5.6,5.6 0 0 1 -2.663,0.622 5.651,5.651 0 0 1 -2.672,-0.622 z m 4.4,-2.33 a 2.645,2.645 0 0 0 0.675,-1.9 2.645,2.645 0 0 0 -0.675,-1.9 2.277,2.277 0 0 0 -1.726,-0.71 2.3,2.3 0 0 0 -1.735,0.71 2.625,2.625 0 0 0 -0.683,1.9 2.625,2.625 0 0 0 0.683,1.9 2.3,2.3 0 0 0 1.735,0.71 2.277,2.277 0 0 0 1.724,-0.711 z"
             transform="translate(227.579,364.487)"
             fill="#fff"
             style="fill:#000000;stroke:none" />
          <path
             id="Path_6764"
             data-name="Path 6764"
             d="m -178.161,-359.214 a 4.17,4.17 0 0 1 1.078,3.119 v 5.4 h -2.733 v -4.976 a 2.46,2.46 0 0 0 -0.491,-1.673 1.8,1.8 0 0 0 -1.419,-0.552 2.175,2.175 0 0 0 -1.647,0.64 2.647,2.647 0 0 0 -0.613,1.9 v 4.661 h -2.733 v -9.426 h 2.611 v 1.1 a 3.636,3.636 0 0 1 1.349,-0.92 4.71,4.71 0 0 1 1.77,-0.324 3.879,3.879 0 0 1 2.828,1.051 z"
             transform="translate(214.736,364.487)"
             fill="#fff"
             style="fill:#000000;stroke:none" />
          <path
             id="Path_6765"
             data-name="Path 6765"
             d="m -162.055,-366.33 a 1.42,1.42 0 0 1 -0.473,-1.086 1.421,1.421 0 0 1 0.473,-1.086 1.734,1.734 0 0 1 1.226,-0.438 1.777,1.777 0 0 1 1.226,0.421 1.348,1.348 0 0 1 0.473,1.051 1.488,1.488 0 0 1 -0.473,1.13 1.713,1.713 0 0 1 -1.226,0.447 1.734,1.734 0 0 1 -1.226,-0.439 z m -0.14,1.752 h 2.733 v 9.426 h -2.738 z"
             transform="translate(202.318,368.941)"
             fill="#fff"
             style="fill:#000000;stroke:none" />
          <path
             id="Path_6766"
             data-name="Path 6766"
             d="m -146.112,-353.205 a 2.809,2.809 0 0 1 -0.99,0.447 5,5 0 0 1 -1.235,0.149 3.67,3.67 0 0 1 -2.6,-0.859 3.284,3.284 0 0 1 -0.92,-2.523 v -3.872 h -1.454 v -2.1 h 1.454 v -2.3 h 2.734 v 2.3 h 2.347 v 2.1 h -2.347 v 3.837 a 1.287,1.287 0 0 0 0.306,0.92 1.135,1.135 0 0 0 0.868,0.324 1.753,1.753 0 0 0 1.1,-0.35 z"
             transform="translate(197.588,366.539)"
             fill="#fff"
             style="fill:#000000;stroke:none" />
          <path
             id="Path_6767"
             data-name="Path 6767"
             d="m -134.886,-351.18 a 4.62,4.62 0 0 1 -1.848,-1.726 4.751,4.751 0 0 1 -0.666,-2.506 4.751,4.751 0 0 1 0.666,-2.505 4.62,4.62 0 0 1 1.848,-1.726 5.656,5.656 0 0 1 2.672,-0.622 5.607,5.607 0 0 1 2.663,0.622 4.645,4.645 0 0 1 1.84,1.726 4.76,4.76 0 0 1 0.666,2.505 4.76,4.76 0 0 1 -0.666,2.506 4.645,4.645 0 0 1 -1.84,1.726 5.6,5.6 0 0 1 -2.663,0.622 5.65,5.65 0 0 1 -2.672,-0.622 z m 4.4,-2.33 a 2.645,2.645 0 0 0 0.675,-1.9 2.645,2.645 0 0 0 -0.675,-1.9 2.277,2.277 0 0 0 -1.726,-0.71 2.3,2.3 0 0 0 -1.735,0.71 2.625,2.625 0 0 0 -0.683,1.9 2.625,2.625 0 0 0 0.683,1.9 2.3,2.3 0 0 0 1.735,0.71 2.277,2.277 0 0 0 1.724,-0.711 z"
             transform="translate(189.42,364.487)"
             fill="#fff"
             style="fill:#000000;stroke:none" />
          <path
             id="Path_6768"
             data-name="Path 6768"
             d="m -108.448,-359.915 a 4.911,4.911 0 0 1 1.919,-0.35 v 2.523 q -0.456,-0.035 -0.614,-0.035 a 2.5,2.5 0 0 0 -1.839,0.657 2.654,2.654 0 0 0 -0.666,1.971 v 4.45 h -2.733 v -9.426 h 2.611 v 1.244 a 3.043,3.043 0 0 1 1.322,-1.034 z"
             transform="translate(176.577,364.487)"
             fill="#fff"
             style="fill:#000000;stroke:none" />
        </g>
        <g
           id="Group_1453"
           data-name="Group 1453"
           transform="translate(102.203,203.511)"
           style="fill:#000000;stroke:none">
          <path
             id="Path_6769"
             data-name="Path 6769"
             d="m -570.733,-363.11 h -4.58 v -2.7 h 12.473 v 2.7 h -4.58 v 11.61 h -3.313 z"
             transform="translate(575.313,365.809)"
             fill="#fff"
             style="fill:#000000;stroke:none" />
          <path
             id="Path_6770"
             data-name="Path 6770"
             d="m -542.5,-353.7 h -8.322 a 2.589,2.589 0 0 0 1.063,1.615 3.518,3.518 0 0 0 2.086,0.593 4.223,4.223 0 0 0 1.523,-0.256 3.691,3.691 0 0 0 1.237,-0.808 l 1.7,1.84 a 5.7,5.7 0 0 1 -4.539,1.779 7.178,7.178 0 0 1 -3.292,-0.726 5.321,5.321 0 0 1 -2.208,-2.014 5.545,5.545 0 0 1 -0.777,-2.924 5.625,5.625 0 0 1 0.767,-2.914 5.371,5.371 0 0 1 2.106,-2.024 6.19,6.19 0 0 1 3,-0.726 6.143,6.143 0 0 1 2.924,0.7 5.075,5.075 0 0 1 2.055,1.994 5.947,5.947 0 0 1 0.746,3.016 q -0.012,0.055 -0.069,0.855 z m -7.463,-3.537 a 2.613,2.613 0 0 0 -0.9,1.677 h 5.419 a 2.638,2.638 0 0 0 -0.9,-1.667 2.689,2.689 0 0 0 -1.8,-0.624 2.747,2.747 0 0 0 -1.824,0.612 z"
             transform="translate(566.122,363.414)"
             fill="#fff"
             style="fill:#000000;stroke:none" />
          <path
             id="Path_6771"
             data-name="Path 6771"
             d="m -529.667,-349.274 a 7,7 0 0 1 -2.086,-0.849 l 1.063,-2.29 a 6.673,6.673 0 0 0 1.779,0.767 7.457,7.457 0 0 0 2.045,0.3 q 2.024,0 2.024,-1 a 0.709,0.709 0 0 0 -0.552,-0.675 8.174,8.174 0 0 0 -1.7,-0.348 16.358,16.358 0 0 1 -2.229,-0.47 3.452,3.452 0 0 1 -1.523,-0.941 2.675,2.675 0 0 1 -0.644,-1.922 3.011,3.011 0 0 1 0.6,-1.851 3.88,3.88 0 0 1 1.758,-1.258 7.524,7.524 0 0 1 2.73,-0.45 10.717,10.717 0 0 1 2.321,0.256 6.486,6.486 0 0 1 1.912,0.706 l -1.063,2.27 a 6.348,6.348 0 0 0 -3.169,-0.818 3.226,3.226 0 0 0 -1.534,0.286 0.842,0.842 0 0 0 -0.511,0.736 0.73,0.73 0 0 0 0.552,0.716 9.763,9.763 0 0 0 1.758,0.388 18.945,18.945 0 0 1 2.208,0.481 3.325,3.325 0 0 1 1.493,0.93 2.643,2.643 0 0 1 0.634,1.881 2.9,2.9 0 0 1 -0.613,1.82 3.916,3.916 0 0 1 -1.789,1.237 7.975,7.975 0 0 1 -2.791,0.44 10.69,10.69 0 0 1 -2.673,-0.342 z"
             transform="translate(556.495,363.414)"
             fill="#fff"
             style="fill:#000000;stroke:none" />
          <path
             id="Path_6772"
             data-name="Path 6772"
             d="m -504.665,-351.358 a 3.281,3.281 0 0 1 -1.156,0.521 5.834,5.834 0 0 1 -1.441,0.174 4.282,4.282 0 0 1 -3.036,-1 3.832,3.832 0 0 1 -1.074,-2.944 v -4.519 h -1.7 v -2.454 h 1.7 v -2.679 h 3.19 v 2.679 h 2.739 v 2.454 h -2.739 v 4.478 a 1.5,1.5 0 0 0 0.358,1.074 1.323,1.323 0 0 0 1.012,0.378 2.046,2.046 0 0 0 1.288,-0.409 z"
             transform="translate(548.423,365.14)"
             fill="#fff"
             style="fill:#000000;stroke:none" />
        </g>
      </g>
    </g>
  </g>
</svg>
