<svg xmlns="http://www.w3.org/2000/svg" width="383.5681" height="184.9649">
  <g fill="#000">
    <g >
      <g  transform="matrix(.7951 0 0 .78 -71.5518 -66.298)">
        <path d="M278.81 261.51h-35.6c-11.357 7.647-22.685 11.99-34.634 11.99a69.736 69.736 0 0 1-50.9-21.977v33.421h-35.329a118.232 118.232 0 0 0 86.226 37.19c26.781 0 49.919-10.292 70.238-25.584z" data-name="Path 6722"/>
      </g>
      <g  transform="matrix(.7951 0 0 .78 -71.5518 -66.298)">
        <path d="M150.842 278.128v-34.626h.3a69.606 69.606 0 0 1-12.517-39.928 69.718 69.718 0 0 1 20.927-49.885h-33.218v-35.534a118.22 118.22 0 0 0-36.343 85.419 118.063 118.063 0 0 0 26.379 74.554z" data-name="Path 6723"/>
      </g>
      <g  transform="matrix(.7951 0 0 .78 -71.5518 -66.298)">
        <path d="M408.887 108.316h6.827v35.457c11.035-6.748 23.02-10.138 38.121-10.138a69.793 69.793 0 0 1 54.008 25.5h34.348v-34.626a118.265 118.265 0 0 0-88.358-39.511c-28.773 0-51.033 9.915-68.983 23.315z" data-name="Path 6724"/>
      </g>
      <g  transform="matrix(.7951 0 0 .78 -71.5518 -66.298)">
        <path d="M133.168 112.233v34.626h34.474a69.615 69.615 0 0 1 40.925-13.224c21.409 0 36.185 7.1 51.107 20.757v-32.731h32.665C271.874 102.136 245.333 85 208.567 85a118.086 118.086 0 0 0-75.608 27.233z" data-name="Path 6725"/>
      </g>
      <g  transform="matrix(.7951 0 0 .78 -71.5518 -66.298)">
        <path d="M549.017 132.855v33.105h-36.21a69.607 69.607 0 0 1 10.963 37.607 69.766 69.766 0 0 1-23.937 52.677v34.264h34.614a118.242 118.242 0 0 0 37.958-86.941 118.036 118.036 0 0 0-23.388-70.712z" data-name="Path 6727" opacity=".995"/>
      </g>
      <g  transform="matrix(.7951 0 0 .78 -71.5518 -66.298)">
        <path d="M499.835 297.337h-6.827v-35.825a69.605 69.605 0 0 1-39.172 11.988c-19.916 0-37.76-11.3-52.476-24.833h-31.817v33.887c23.1 23.273 47.638 39.58 84.293 39.58a118.051 118.051 0 0 0 72.569-24.8z" data-name="Path 6728"/>
      </g>
      <g  transform="matrix(.7951 0 0 .78 -71.5518 -66.298)">
        <path d="M331.529 165.431c-3.984-4.806-8.013-9.627-11.939-14.267-5.99-7.079-12.589-14.93-20.038-22.676h-32.6v32.49c9.842 10.182 20.179 23.109 32.9 38.673l2.115 2.588 30.9 37.794c9.683 11.836 13.337 16.29 13.337 16.29 5.651 6.516 11.172 12.808 16.716 18.747v-33.52h31.555c-10.488-10.775-19.025-21.994-25.126-29.536 0 0-3.067-3.86-8.018-10.022z" data-name="Path 6819"/>
      </g>
      <g  transform="matrix(.7951 0 0 .78 -71.5518 -66.298)">
        <path d="M360.9 202.021q.9-1.187 1.8-2.351c17.971-23.308 31.555-40.469 46.054-51.492v-33.363h-32.568c-12.651 10.952-23.014 23.315-32.055 34.259-4.975 6.022-9.236 11.3-13.166 16.221l-29.7 36.975c-2.932 3.519-6.1 7.279-9.622 11.385-13.965 16.3-26.813 30.33-39.41 40.7h33.3v36.575c17.573-14.658 32.967-32.803 46.767-50.695Z" data-name="Path 6774"/>
      </g>
    </g>
  </g>
</svg>
