<?xml version="1.0" encoding="UTF-8" standalone="no"?>
<svg
   xml:space="preserve"
   width="444.94336"
   height="551.07422"
   viewBox="0 0 32.258411 39.952836"
   version="1.1"
   id="svg16"
   sodipodi:docname="doc.svg"
   xmlns:inkscape="http://www.inkscape.org/namespaces/inkscape"
   xmlns:sodipodi="http://sodipodi.sourceforge.net/DTD/sodipodi-0.dtd"
   xmlns="http://www.w3.org/2000/svg"
   xmlns:svg="http://www.w3.org/2000/svg"><defs
   id="defs20" /><sodipodi:namedview
   id="namedview18"
   pagecolor="#8a76f0"
   bordercolor="#000000"
   borderopacity="0.25"
   inkscape:showpageshadow="2"
   inkscape:pageopacity="0.95294118"
   inkscape:pagecheckerboard="0"
   inkscape:deskcolor="#d1d1d1"
   showgrid="false" />
  <g
   paint-order="stroke fill markers"
   id="g14"
   transform="translate(-0.077739,-0.0778809)">
    
    
  <g
   id="g3960"
   transform="translate(17.700726,0.19451347)"><path
     id="path2"
     d="M -17.622987,-0.1166657 V 39.836237 H 14.635424 V -0.1166657 Z m 4.579681,7.4703361 h 8.8250385 c 0.257232,0 0.4643118,0.2070795 0.4643118,0.4643118 0,0.257232 -0.2070798,0.4643117 -0.4643118,0.4643117 h -8.8250385 c -0.257233,0 -0.464312,-0.2070797 -0.464312,-0.4643117 0,-0.2572323 0.207079,-0.4643118 0.464312,-0.4643118 z m 0,4.3834206 h 23.62595 c 0.257233,0 0.464312,0.207079 0.464312,0.464312 0,0.25723 -0.207079,0.464311 -0.464312,0.464311 h -23.62595 c -0.257233,0 -0.464312,-0.207081 -0.464312,-0.464311 0,-0.257233 0.207079,-0.464312 0.464312,-0.464312 z m 0,3.095695 h 23.62595 c 0.257233,0 0.464312,0.207079 0.464312,0.464312 v 1.41e-4 c 0,0.257233 -0.207079,0.464312 -0.464312,0.464312 h -23.62595 c -0.257233,0 -0.464312,-0.207079 -0.464312,-0.464312 v -1.41e-4 c 0,-0.257233 0.207079,-0.464312 0.464312,-0.464312 z m 0,3.095695 H 0.89723331 c 0.25723289,0 0.46431179,0.207079 0.46431179,0.464312 v 1.41e-4 c 0,0.257233 -0.2070789,0.464312 -0.46431179,0.464312 H -13.043306 c -0.257233,0 -0.464312,-0.207079 -0.464312,-0.464312 v -1.41e-4 c 0,-0.257233 0.207079,-0.464312 0.464312,-0.464312 z" /><g
     fill="#fff"
     transform="matrix(0.854,0,0,0.854,-25.89062,2.4497919)"
     id="g12"
     style="fill:#ffffff;stroke:none">
      
      
      
      
    </g></g></g>
</svg>
