<svg xmlns="http://www.w3.org/2000/svg" width="545.1303" height="337.9529">
  <path d="M276.5065 328.5363c.159-13.1633-5.0735-24.6196-8.872-19.4248-.7037.9624-1.8925 1.6204-2.6418 1.4623-.7758-.1637-1.3026.466-1.2235 1.4625.1755 2.2119-1.9652 2.2666-3.7665.0963-.7548-.9095-1.2599-1.8095-1.1224-2 .7978-1.1051-.0408-2.2025-2.0731-2.7125-1.2777-.3207-3.9977-1.7195-6.0444-3.1084-4.5955-3.1186-4.2626-3.167-4.9896.7246-1.2393 6.6347-6.1065 21.75-7.0035 21.75-.8813 0-.7122-3.2777.9671-18.75.7907-7.2846.011-7.7133-4.0483-2.2264-1.618 2.187-3.7555 3.9764-4.75 3.9764-1.8527 0-2.1016-.6517-1.9099-5 .1405-3.185-4.3014-6.7402-6.324-5.0617-1.3154 1.0917-3.0803-1.8923-2.6085-4.4102.1002-.5346-.686-.1862-1.7472.774-1.0611.9604-2.5617 1.5035-3.3346 1.2069-.7728-.2966-2.8907.8176-4.7063 2.4759-1.8156 1.6583-3.8991 3.0151-4.63 3.0151-1.6105 0-2.6046-6.7583-1.095-7.4445.576-.2619-.1292-.2355-1.5672.0586-1.814.371-2.7994.0527-3.2186-1.0397-.3323-.8659-1.0682-1.5744-1.6355-1.5744-.5673 0-1.938-.9066-3.0462-2.0147-1.9868-1.9869-7.5598-2.4826-8.6202-.7668-.9501 1.5373-2.8843.7242-3.9997-1.6814-.7882-1.7-.8105-2.5553-.073-2.8012 2.061-.687-.449-2.7359-3.3513-2.7359-2.2743 0-2.941-.4533-2.941-2 0-2.2263-1.3902-2.393-9.214-1.1044-2.965.4884-5.0984.392-5.75-.2596-1.4241-1.4241-1.2987-2.636.2729-2.636.7199 0 2.1824-.6465 3.25-1.4367 1.7852-1.3213 1.6222-1.408-2.03-1.079-4.2186.38-10.5289-1.6777-10.5289-3.4333 0-.578-.9-1.051-2-1.051-1.8304 0-2.6637-2.1519-2.079-5.3683.0868-.4776-1.089-.5554-2.613-.1729-3.2992.828-3.1526.8131-6.308.6443-2.0512-.1097-2.2307-.3242-1-1.1945 1.1288-.7983 1.1907-1.1864.25-1.568-.6875-.279-1.2357-1.4823-1.2182-2.674.0306-2.086.0846-2.0969 1.452-.2912.8197 1.0826 2.0746 1.6243 2.9682 1.2814 2.393-.9183 1.8356-2.3682-1.202-3.1263-1.5125-.3775-3.5627-1.4188-4.556-2.314-1.4532-1.3099-2.1764-1.3963-3.7036-.4426-1.2001.7495-2.1202.8251-2.503.2056-.333-.5387-.1289-.9795.4536-.9795.5824 0 1.059-.6664 1.059-1.481 0-1.9081-4.0535-2.9093-9.0604-2.2377-2.1668.2906-3.9396.3694-3.9396.175 0-.9287 4.8664-5.4563 5.8647-5.4563.6244 0 1.1353-.585 1.1353-1.3 0-2.306-2.309-3.7-6.1286-3.7-2.0507 0-4.4022-.6737-5.2257-1.4971-.8234-.8234-2.2372-1.2131-3.1419-.866-1.4022.5381-1.5475.1129-.9853-2.8838.7694-4.101-.7238-5.5473-8.6811-8.4087-4.9762-1.7894-6.3229-3.3444-2.8964-3.3444 1.0675 0 2.219-.45 2.559-1 .34-.55 2.3364-1 4.4366-1 8.9222 0 7.429-4.8604-2.1268-6.9227-3.4704-.749-8.0818-2.1977-10.2476-3.2195-2.1658-1.0218-4.7165-1.8578-5.6682-1.8578-2.8553 0-4.894-1.1226-4.894-2.6949 0-1.1672.8256-1.3414 3.8974-.8224 2.3158.3912 4.1549.2417 4.532-.3685.349-.5647 1.2952-.7733 2.1026-.4635 1.0044.3854 1.468-.102 1.468-1.5437 0-2.3654-1.0133-2.6937-2.8-.907-.9333.9333-1.4667.9333-2.4 0-.8956-.8956-.9119-1.488-.0643-2.3357.8476-.8476.828-1.4184-.077-2.25-2.2954-2.1092-7.5792-5.6143-8.4632-5.6143-.487 0-1.6896-.8885-2.6724-1.9745-.9828-1.086-2.74-2.2735-3.905-2.639-1.165-.3654-3.1072-1.6144-4.3162-2.7755-1.209-1.161-4.4715-4.1327-7.25-6.6037-7.4762-6.6486-6.5968-9.0216 1.8338-4.9484 5.757 2.7814 7.3186 1.9615 2.8115-1.4763-3.267-2.4918-7.6972-8.23-7.6972-9.9697 0-.358 1.125-.3686 2.5-.0236 2.7767.697 3.5717-1.2409.9256-2.2563-1.1025-.423-1.3902-1.3378-.96-3.0517.4798-1.9121.1679-2.5644-1.4257-2.9811-1.122-.2934-2.0399-.9575-2.0399-1.4758s.45-.6643 1-.3244c.55.34 1.498.3102 2.1068-.066.7715-.4768.6958-.9444-.25-1.5437-.8003-.507-.8943-.866-.2292-.875.6201-.008 1.7123.6894 2.4271 1.5506 1.755 2.1146 6.39 4.4341 8.8607 4.4341 1.108 0 4.0735.699 6.5897 1.5533 4.1132 1.3964 4.8847 1.3987 7.6431.0227 2.335-1.165 3.5546-1.2702 5.1043-.4409 1.4534.7779 3.0682.785 5.6418.0248 3.5918-1.0608 8.4788-2.1263 10.8557-2.3668 1.9131-.1935 1.5529-.8736-2.3618-4.4594-4.0785-3.7358-4.1027-6.8021-.0456-5.7839 1.65.4142 2.5728.1132 2.9905-.9754.3323-.8659 1.7433-1.5744 3.1355-1.5744 1.5835 0 2.5314-.5617 2.5314-1.5 0-1.1375 1.2341-1.5 5.107-1.5 4.2855 0 5.0075-.2592 4.4887-1.6113-.429-1.1178-.1851-1.4451.7959-1.0687.7778.2985 3.5954-.1464 6.2613-.9887 2.666-.8423 5.5221-1.5309 6.3471-1.5303.825.0007 3.8794-.8543 6.7875-1.8999 2.9081-1.0456 6.8164-1.901 8.685-1.901 1.8685 0 4.508-.4224 5.8654-.9385 1.9846-.7545 15.314-1.3694 22.6621-1.0455.825.0364 5.775-.225 11-.5809 14.6897-1.0005 27.7025-.4838 38.8843 1.5438 3.4862.6322 6.9959.8972 7.7992.589.8033-.3083 3.3407-.13 5.6385.396 2.298.5262 8.903 1.1821 14.678 1.4577 12.5853.6006 14.3123.8211 15.1228 1.9316.3426.4692 1.6313.3135 2.864-.3462 2.2506-1.2045 9.0132 1.2117 9.0132 3.2203 0 1.4072 2.2574.801 3.6405-.9774 1.2539-1.6123 1.439-1.6205 2.3516-.1041.8382 1.3924 1.6244 1.485 5.1057.6013 3.9951-1.014 4.2124-.9381 7.4576 2.6042 3.8089 4.1576 4.0111 4.225 6.178 2.0581 1.013-1.013 2.7785-1.4518 4.863-1.2084 2.67.3117 3.4714-.0543 4.3524-1.988 1.5278-3.3532 3.455-2.2418 4.1017 2.365.5505 3.922.5505 3.922 3.1383-1.7 3.6558-7.942 5.2993-8.647 4.504-1.9319-.5532 4.671-.403 5.3168 1.3421 5.7732 1.0808.2826 1.9651 1.3658 1.9651 2.407 0 1.0413.8605 2.63 1.9122 3.5305 3.5085 3.004 1.3132 4.4358-2.6635 1.7372-2.4571-1.6675-3.925-2.1178-4.6243-1.4185-.5634.5634-2.0043 1.0244-3.202 1.0244-2.3732 0-3.8253 1.393-4.6905 4.5-.3064 1.1-1.4742 4.5131-2.5952 7.5848-6.0965 16.7053-6.7271 23.233-1.765 18.2708 2.1485-2.1485 2.8789-2.3925 4.108-1.3725.8221.6824 2.1383.9937 2.9248.692.7865-.3019 1.6925.1352 2.0133.9712 1.61 4.1957 5.1597-2.849 6.6242-13.1463 2.0556-14.4543 3.6673-14.9907 3.3568-1.1172-.1581 7.0616-.5375 13.0893-.8431 13.3949-.3056.3056-.5557 1.3806-.5557 2.389 0 2.28 4.507 2.5602 5.3616.3333.808-2.1057 1.995-1.866 3.1513.6366 1.2637 2.7352 2.692 2.7168 4.1063-.053 1.1072-2.1684 1.125-2.1698 1.6564-.1377.6762 2.586 3.3912 2.6794 4.1957.1444.7828-2.4662 3.1652-4.433 4.4259-3.6538.604.3733.2608 2.226-.888 4.7918-2.3495 5.2478-1.4977 6.9862 1.3503 2.7558 1.1773-1.7487 3.7719-5.123 5.7658-7.4985 5.6275-6.7044 12.6432-27.6962 9.3747-28.05-.55-.0596-1.675-.3713-2.5-.6927-.825-.3214-2.175-.8095-3-1.0847-1.0891-.3633-.9824-.5219.3898-.5792 1.0393-.0434 2.4708-.8665 3.181-1.829 1.202-1.6288 1.351-1.5905 2.1523.554.8016 2.145 1.0441 1.9482 3.5203-2.8573 2.6593-5.161 2.6593-5.161 3.3451.009.4317 3.2544 1.0368 4.8191 1.633 4.2229 1.2071-1.2071 4.7785-.312 4.7785 1.1976 0 1.9748-4.1256 4.0387-5.0578 2.5304-1.0466-1.6935-3.512.2671-4.2428 3.374-.2871 1.2207-1.8799 6.9268-3.5394 12.6803-3.1484 10.9144-3.1842 13.276-.16 10.5391 2.2966-2.0783 2.8393-1.0992 2.4946 4.5-.395 6.4142.392 6.873 4.1566 2.4232 3.319-3.9232 3.319-3.9232 3.334-.6732.019 4.1576 2.278 4.3058 4.6418.3044 1.8604-3.1494 4.0588-3.2044 2.3757-.0594-2.8774 5.3765-.3638 5.0985 3.6836-.4075 2.6404-3.5917 3.6257-4.2505 5.75-3.8444 1.7778.3399 2.5637.055 2.5637-.9295 0-.7807 1.2999-3.1957 2.8886-5.3666 3.7522-5.1268 7.1114-11.1687 7.1114-12.7902 0-1.9718 4.8902-11.6568 5.8857-11.6568 1.0132 0 2.0807 3.4462 2.1007 6.7814.008 1.2548.6886 2.5404 1.5136 2.857.825.3166 1.5 1.0472 1.5 1.6236s-.913.2217-2.029-.7882c-2.7372-2.4772-7.566 4.1384-12.4273 17.0262-1.2448 3.3-2.5995 6.7875-3.0105 7.75-1.045 2.4475.5445 2.1865 4.9688-.8159 3.781-2.566 3.781-2.566 3.212.9408-.6932 4.272.8523 4.0016 3.7994-.6647 2.386-3.778 5.6302-4.9752 4.7916-1.7684-.3794 1.4508-.0612 2.0582 1.0784 2.0582 2.2185 0 2.0405 1.411-.9851 7.8066-2.7684 5.8518-6.3329 15.8776-6.3737 17.9272-.0271 1.358 3.5872.0786 12.2758-4.3453 4.527-2.305 6.6996-2.4245 6.6996-.3684 0 1.4719-3.6889 4.47-8.3866 6.8162-4.983 2.4887-7.22 4.6708-5.731 5.591.5387.333 1.2584.154 1.5994-.3978 1.51-2.4433 11.5386-4.321 13.5168-2.5307 1.1733 1.0618 2.6216 1.4392 3.9297 1.024 2.945-.9347 2.577.3346-.4283 1.4772-3.496 1.3292-3.1196 3.7361.75 4.797 4.4143 1.21 21.0994.655 21.5568-.7172.1979-.5939 1.3349-1.0898 2.5265-1.102 1.1917-.0122 3.2917-.9022 4.6667-1.9778 1.375-1.0755 2.95-1.9805 3.5-2.011 1.5125-.084 5.01-3.2611 5.7672-5.239.3685-.9625 1.3018-1.75 2.074-1.75.7723 0 3.2614-2.015 5.5314-4.4776 4.0693-4.4147 5.2357-4.0489 2.9669.9306-.6383 1.4008-1.7498 2.547-2.47 2.547-.7203 0-2.3356 1.392-3.5896 3.0931-2.19 2.9712-9.9922 8.907-11.7076 8.907-.455 0-1.3636.646-2.019 1.4356-.6553.7897-2.6229 1.7416-4.3724 2.1155-1.7495.3739-3.6958 1.0934-4.325 1.5989-.6293.5055-3.4187 1.1884-6.1986 1.5177-4.4303.5247-5.178.9527-6.0539 3.4654-.5496 1.5768-1.2266 2.8668-1.5043 2.8668-1.7133 0-5.5991-2.5404-5.5991-3.6605 0-.7367-.45-1.3395-1-1.3395s-1 .6269-1 1.393c0 .7662-.675 1.652-1.5 1.9686-2.521.9674-1.6901 2.3452 2.4015 3.9823 7.8676 3.148 18.1935 2.858 28.5985-.8034 2-.7038 2-.7038 0 .9213-1.1.8938-3.125 1.8528-4.5 2.131-1.375.2784-4.0792.9701-6.0093 1.5373-5.2668 1.5476-25.0621-1.495-34.2963-5.2714-5.9415-2.4299-3.0169 9.4436 4.8831 19.8246 1.3324 1.7508 2.4225 3.6366 2.4225 4.1908 0 .5541 1.7943 4.5216 3.9873 8.8167 2.193 4.295 3.993 8.3579 4 9.0284.007.6706 1.0248 3.1456 2.2619 5.5 10.0416 19.1122-.2885 40.698-13.4445 28.0937-3.3866-3.2446-.579-10.3129 4.0965-10.3129.6125 0 1.0988-1.744 1.0988-3.941 0-2.1675.4865-4.2416 1.081-4.609.6005-.3712.8054-1.7664.461-3.1389-.5378-2.1424-.3492-2.3847 1.419-1.8235 2.6662.8463 2.572.1906-.4392-3.0586-1.9097-2.0605-2.3779-3.4573-2.041-6.0885.2887-2.2548-.2253-4.5059-1.5132-6.6275-1.0727-1.7672-2.2456-3.888-2.6064-4.713-.3607-.825-1.4547-3.3111-2.431-5.5248-.9762-2.2136-2.71-4.8708-3.8526-5.905-1.1427-1.034-2.0824-2.373-2.0882-2.9752-.006-.6022-1.5809-2.6207-3.5-4.4854-1.9192-1.8648-3.4894-4.0336-3.4894-4.8196 0-.917-.8061-1.306-2.25-1.0858-1.2375.1888-2.1375.8951-2 1.5696.1375.6744-.2 1.2262-.75 1.2262s-1 .6269-1 1.393c0 .7662-.726 1.6717-1.6134 2.0122-1.023.3926-1.4234 1.3462-1.094 2.606.2858 1.0927.0879 2.2536-.4397 2.5798-.5277.326-1.9943 2.914-3.2592 5.751-6.0151 13.4907-28.2123 34.2765-34.1648 31.9924-.6746-.259-1.5237.01-1.8868.5974-.363.5875-.1836 1.0682.3989 1.0682.5824 0 1.059.8512 1.059 1.8916 0 2.2592 4.1913 3.6116 6.8248 2.2022 1.6554-.886 5.4764-1.57 14.1752-2.5378 9.279-1.0322 18.0728 1.5371 9.7925 2.8612-2.3141.37-6.2171 1.5617-8.6732 2.6482-3.6652 1.6213-5.0482 1.7831-7.7153.903-3.1825-1.0504-10.7434-.3693-19.3292 1.7411-3.7166.9135-5.42 3.2905-2.3581 3.2905 1.0358 0 2.4086.5253 3.0505 1.1672.8896.8897 1.3194.7707 1.807-.5.691-1.8007 7.226-2.3897 8.9758-.809.5225.4721 3.875 1.439 7.45 2.149 3.575.7098 7.302 1.6972 8.2822 2.1941 1.5412.7814 1.6956.5584 1.1416-1.6489-1.0431-4.156 3.1222-3.245 5.46 1.1943.6507 1.2358 2.8555 3.1083 4.8996 4.1613 4.5339 2.3356 17.1202 15.092 14.8907 15.092-.8584 0-2.1487-.7875-2.8674-1.75-.7187-.9625-1.9817-1.8939-2.8067-2.0698-.825-.1759-2.8565-1.624-4.5145-3.218-2.167-2.0833-3.6397-2.7346-5.2379-2.3167-1.54.4027-2.4235.0597-2.8746-1.1159-.467-1.2168-.8616-1.357-1.3941-.4954-.5401.874-1.2834.6613-2.7239-.7792-4.7936-4.7936-15.3794-2.3914-10.9946 2.495.8637.9625 1.8835 3.4375 2.2663 5.5.3827 2.0625 1.0958 3.75 1.5846 3.75.4888 0 .8887 1.125.8887 2.5 0 3.631-2.1303 3.0159-5-1.4436-10.3506-16.0846-13.9516-20.4381-15.5683-18.8215-.6929.693 3.2094 9.4734 4.4016 9.904 1.6036.5793 2.6439 7.8611 1.123 7.8611-.853 0-.6927.6338.4913 1.9422 1.3621 1.505 1.5517 2.5599.8425 4.6875-1.4281 4.2844-3.2705 4.1247-3.4177-.2964-.2251-6.7604-.546-8.069-2.9203-11.9107-1.8736-3.0316-2.5137-3.4793-3.267-2.285-1.0555 1.6731-7.6801.2672-7.6907-1.6323-.017-3.0703-2.28-8.5053-3.5414-8.5053-1.935 0-1.8407 1.9142.2057 4.1753 1.422 1.5714 1.4742 2.2245.3654 4.5788-.7113 1.5102-1.4863 4.996-1.7223 7.746-.6313 7.3558-4.237 8.8776-4.2865 1.809-.008-1.2051-.4154-2.4384-.9045-2.7406-.489-.3023-1.1991-1.7913-1.578-3.309-1.2641-5.0653-5.5328-8.269-5.5328-4.1525 0 1.5092-.4482 1.935-1.5795 1.5009-3.3644-1.291-6.4205.4313-6.4205 3.6185 0 6.8056-8.0475 12.6115-8.6957 6.2736-.225-2.2-.7987-4.3906-1.2747-4.868-.476-.4774-.6628-2.2774-.415-4 .3314-2.3032-.3592-4.3999-2.6098-7.9238-3.0069-4.7078-5.0048-5.3994-5.0048-1.7325 0 1.0217-.5625 2.0662-1.25 2.321-.9136.3388-.7746.9615.5162 2.3139 1.3727 1.4381 2.1524 1.6095 3.5.769 1.4815-.924 1.7643-.6665 1.9435 1.7696.2339 3.1784-1.099 3.7646-2.5725 1.1314-.6359-1.1361-1.9904-1.641-3.9935-1.4884-1.9698.1501-3.3578-.3524-3.9637-1.435-.5189-.9272-1.594-1.4123-2.424-1.0938-1.7262.6624-2.928 5.5123-1.5733 6.3495.523.3232.4177 1.1637-.246 1.9634-.6383.769-.916 2.0352-.6173 2.8138.2988.7785-.001 2.16-.6665 3.07-1.0574 1.446-1.3809 1.175-2.5689-2.1529-3.1155-8.727-2.9348-8.4574-4.9468-7.3806-1.2321.6594-3.0399.675-5.2365.0449-5.614-1.61-6.497-.713-9.915 10.0736-3.868 12.2064-3.7606 12.2152-3.6095-.2951zm86.307-12.9375c-.3193-.7977-.5563-.5608-.6042.6042-.0434 1.0541.1929 1.6448.5252 1.3125.3323-.3323.3678-1.1948.0789-1.9167zm-29.0165-.4792c-.3667-.3666-.6667-.0667-.6667.6667 0 .7333.3 1.0333.6667.6667.3666-.3667.3666-.9667 0-1.3334zm5.8333-5.3333c-.34-.55-1.0415-1-1.559-1-.5176 0-.941.45-.941 1s.7016 1 1.559 1c.8575 0 1.281-.45.941-1zm-3.4877-3.977c-1.536-2.87-3.942-3.8563-9.4075-3.8563-2.661 0-5.3256-.4875-5.9215-1.0834-1.5581-1.558-10.9659-1.431-10.4419.141.469 1.4069 5.2487 2.7085 11.7586 3.2023 2.475.1877 5.175.583 6 .8781 8.6425 3.093 9.3155 3.1533 8.0123.7182zm-54.0123-3.082c0-3.2009.6127-3.3963 7.2227-2.3036 2.4077.398 3.9328 1.2773 4.3174 2.489.7071 2.2279 3.4599 2.525 3.4599.3736 0-1.6678 2.7113-1.9682 4.9548-.549 2.1753 1.376 7.2084-1.8613 6.477-4.166-.668-2.1046-.9617-2.0827 9.3396-.6963 8.8659 1.1931 14.3702.0592 9.2286-1.9013-7.4721-2.849-28.2636-21.8634-32.0742-29.3328-2.7711-5.4318-8.5063-25.1839-9.6123-33.1046-.439-3.1437-.9108-3.75-2.9185-3.75-1.3173 0-2.395-.45-2.395-1 0-1.2645-3.287-1.309-4.55-.0617-1.4975 1.479-21.3809-.5658-23.4168-2.4082-2.1236-1.9219-4.1083-1.9405-6.592-.0619-1.0677.8075-2.3912 1.4756-2.9412 1.4847-.55.009-.3376-.4024.472-.9144 1.2594-.7965 1.2215-1.027-.2628-1.5966-.954-.366-2.3646-.1428-3.1346.4962-1.323 1.098-3.6437 1.4835-14.772 2.4534-2.5835.2252-6.1256 1.122-7.8714 1.993-3.5604 1.776-5.2807 1.292-4.4712-1.2584.4775-1.5045-.2845-1.6903-6.4624-1.5757-5.8258.1082-7.5821-.263-10.4432-2.2072-2.9525-2.0063-3.8372-2.1769-6.247-1.2043-1.544.6232-4.026 1.0661-5.5154.9844-1.7418-.0956-3.07.5275-3.7223 1.7464-1.0773 2.013-7.0697 3.5023-7.0697 1.7571 0-.6666-.3807-.6461-1.0851.0583-1.2598 1.2599.878 6.032 4.8144 10.747 1.7728 2.1233 2.2974 3.6842 1.9024 5.6595-.365 1.8246-.0774 2.9071.8687 3.2702.7778.2985 2.564 2.3642 3.9694 4.5904 1.4054 2.2263 3.1549 4.0478 3.8878 4.0478.7328 0 2.1886.946 3.235 2.1024 1.0465 1.1563 3.1412 2.7429 4.655 3.5257 1.5138.7828 2.7524 2.0709 2.7524 2.8624 0 1.7513 2.9803 3.4243 4.8892 2.7447.7902-.2814 1.1122-.0464.7468.5448-1.2749 2.0627.6198 4.1077 6.1903 6.6811 3.1205 1.4417 6.9493 3.2786 8.5084 4.0822 1.5591.8035 5.8341 2.615 9.5 4.0255 3.666 1.4105 8.434 3.3145 10.596 4.2312 2.1618.9167 4.4118 1.7016 5 1.7442.588.0427 2.8693.9064 5.0693 1.9194 2.2 1.0131 6.925 2.612 10.5 3.5531 4.6773 1.2314 6.8206 2.3389 7.6431 3.9494.9817 1.922 1.2677 2.0156 2.025.6624 1.1592-2.0712 8.281-1.0691 9.0003 1.2665 2.0478 6.6488 4.3316 7.7276 4.3316 2.046zm16.5-5.941c-4-.7162-4-.7162 0-.8428 2.2-.0696 4.675.3097 5.5.8428 1.7874 1.1551.9513 1.1551-5.5 0zm-10.0398-1.4055c-1.798-1.3146-1.7456-1.3717.8088-.8834 1.502.2871 2.731.9196 2.731 1.4055 0 1.2828-1.3423 1.0848-3.5398-.522zm-8.4602-1.5945c-1.3333-.8617-1.3333-.9694 0-.9694.825 0 2.175.4363 3 .9694 1.3333.8617 1.3333.9694 0 .9694-.825 0-2.175-.4362-3-.9694zm-12.25-2.6623c.6875-.2774 1.8125-.2774 2.5 0s.125.5044-1.25.5044-1.9375-.227-1.25-.5044zm-5-1c.6875-.2774 1.8125-.2774 2.5 0s.125.5044-1.25.5044-1.9375-.227-1.25-.5044zm-12.75-3.8377c0-.275.225-.5.5-.5s.5.225.5.5-.225.5-.5.5-.5-.225-.5-.5zm-8-2c0-.275.225-.5.5-.5s.5.225.5.5-.225.5-.5.5-.5-.225-.5-.5zm-6.5-1.5c-.34-.55-.168-1 .382-1s1.278.45 1.618 1c.34.55.168 1-.382 1s-1.278-.45-1.618-1zm14.5-53c0-.7333.3-1.0333.6667-.6667.3666.3667.3666.9667 0 1.3334-.3667.3666-.6667.0667-.6667-.6667zm105.4102 75.0993c2.0729-2.2905.559-3.6883-2.3238-2.1455-1.0752.5754-2.997 1.0828-4.2707 1.1274-2.1233.0745-2.0665.1954.6843 1.455 3.9003 1.7859 3.8985 1.786 5.9102-.4369zm-93.4255-2.4717c.008-.4799-.6547-.3164-1.4737.3633-.819.6796-1.2127 1.6828-.875 2.2292.6198 1.0028 2.3185-.8723 2.3487-2.5925zm78.0153 1.8724c0-.275-.225-.5-.5-.5s-.5.225-.5.5.225.5.5.5.5-.225.5-.5zm-79.3333-6.1667c-.3667-.3666-.6667-.0667-.6667.6667 0 .7333.3 1.0333.6667.6667.3666-.3667.3666-.9667 0-1.3334zm86.3333-4.2263c0-.4912-.675-1.152-1.5-1.4686-1.5243-.585-2.048.4803-.8333 1.695.9557.9556 2.3333.822 2.3333-.2264zm18.9045-1.166c-.72-.445-1.716-.5575-2.2135-.25-.4975.3075-.3155.923.4045 1.368.72.445 1.716.5575 2.2135.25.4975-.3074.3155-.923-.4045-1.368zm-35.4045-1.4246c-3.087-2.5453-5.5442-2.8878-6.2171-.8664-.4049 1.216 3.8501 3.1416 7.2171 3.2661 1.7074.0632 1.5611-.288-1-2.3997zm5.5 2.0426c0-.2425-.45-.719-1-1.059-.55-.3399-1-.1415-1 .441s.45 1.059 1 1.059 1-.1984 1-.441zm22-.059c0-.275-.225-.5-.5-.5s-.5.225-.5.5.225.5.5.5.5-.225.5-.5zm-37-4c0-.275-.225-.5-.5-.5s-.5.225-.5.5.225.5.5.5.5-.225.5-.5zm38.55-15.4092c.5225-.5 3.3058-1.5988 6.185-2.4416 16.2345-4.7523 29.9157-26.7257 21.7341-34.9073-2.752-2.752-9.6646-4.6553-10.2735-2.8287-.1992.5978-1.2248 1.0868-2.279 1.0868-1.0541 0-1.9166.675-1.9166 1.5 0 1.6982-1.566 2.0114-2.5.5-1.1203-1.8126-1.9777-1.0468-3.8059 3.3993-2.8666 6.9716-8.5981 10.5945-16.6941 10.5524-3.5-.0182-3.5-.0182-1.1392-1.985 1.2984-1.0817 3.4094-1.9667 4.691-1.9667 3.0363 0 3.9675-1.5912 1.7192-2.9378-1.6854-1.0094-1.6864-1.1265-.021-2.4217.9625-.7485 1.7643-1.9864 1.7818-2.7507.0233-1.0185.385-.9247 1.3535.351 1.5297 2.0146 4.6147-.3322 4.6147-3.5105 0-1.9435-1.6275-3.142-2.453-1.8063-1.234 1.9967-6.5857-.9205-5.9988-3.27.7613-3.0475-4.8347-3.2342-7.9503-.2652-1.2185 1.1612-3.002 2.5612-3.9635 3.1112-2.1435 1.2263-2.6564 10.5636-.7091 12.91 3.8709 4.6641-.3571 3.4015-5.0615-1.5116-5.3982-5.6376-8.8638-12.7857-8.8638-18.2826 0-1.6585-.549-2.6158-1.5-2.6158-1.8016 0-1.8573-.455-.351-2.8669.8387-1.343.8586-2.6727.0735-4.925-.8503-2.4389-.7767-3.3331.351-4.269 1.5753-1.3075 1.83-3.7552.5934-5.7033-1.1345-1.7873-7.1669 1.3024-7.1669 3.6708 0 2.4718-1.0817 3.2704-2.658 1.9623-.9932-.8243-1.7318-.7903-2.842.1311-2.1838 1.8125-1.8374 2.7872.8109 2.281 4.2289-.8085 5.1378 1.7498 3.6702 10.3297-1.3142 7.6827-3.2877 10.3796-5.1545 7.0438-3.7316-6.668-8.0935 7.5371-5.2127 16.9758 5.1782 16.9658 17.8507 24.651 42.3861 25.7051 3.575.1536 6.7475.366 7.05.472.3025.106.9775-.2165 1.5-.7166zm-6.2167-35.7574c.3667-.3667.9667-.3667 1.3334 0 .3666.3666.0667.6666-.6667.6666-.7333 0-1.0333-.3-.6667-.6667zm-235.5208-3.2709c.25-.75-.125-1.125-.875-.875-.7219.2406-1.5094 1.0281-1.75 1.75-.25.75.125 1.125.875.875.7219-.2406 1.5094-1.0281 1.75-1.75zm315.9583-4.25c-.618-1.8542-2.7708-2.1617-2.7708-.3958 0 .8708.7125 1.5833 1.5833 1.5833.8709 0 1.4052-.5344 1.1875-1.1875zm-14.7708-1.3125c0-.275-.225-.5-.5-.5s-.5.225-.5.5.225.5.5.5.5-.225.5-.5zm-250-2c0-.275-.225-.5-.5-.5s-.5.225-.5.5.225.5.5.5.5-.225.5-.5zm277.7292-.1042c-.3323-.3322-1.1948-.3678-1.9167-.0789-.7977.3193-.5608.5562.6042.6042 1.0541.0434 1.6448-.193 1.3125-.5252zm-134.3362-1.9776c1.5953-4.1573.6347-5.9758-1.3967-2.644-2.372 3.8903-2.4199 4.2258-.6033 4.2258.7662 0 1.6662-.7118 2-1.5818zm-1.038-6.001c.8353-.3205 1.2696-1.232.965-2.0255-.425-1.1079-.8746-1.1763-1.9368-.2948-2.4166 2.0056-1.8338 3.397.9719 2.3204zm5.645.0829c0-.275-.225-.5-.5-.5s-.5.225-.5.5.225.5.5.5.5-.225.5-.5zm-199.3333-1.1668c-.3667-.3666-.9667-.3666-1.3334 0-.3666.3667-.0667.6667.6667.6667.7333 0 1.0333-.3.6667-.6667zm167.0164-7.5208c-.3192-.7977-.5562-.5608-.6041.6042-.0434 1.0541.1929 1.6448.5252 1.3125.3323-.3323.3678-1.1948.0789-1.9167zm87.6427-7.9672c.5328-.8447.6614-2.7603.2857-4.257-.9137-3.6404-3.9914-3.1168-4.436.7547-.6124 5.331 1.743 7.3186 4.1503 3.5023zm-37.3258-1.3453c0-.275-.225-.5-.5-.5s-.5.225-.5.5.225.5.5.5.5-.225.5-.5zm32.1774-5.5795c3.3772-10.7655 1.5618-14.4872-2.8546-5.852-2.209 4.3191-3.018 9.9029-1.6353 11.2857 1.4625 1.4625 2.8553-.2231 4.4899-5.4337zm33.297-.9205c1.3245 0 3.9262-4.9327 3.0591-5.7998-.2978-.2978-1.5811.4354-2.8519 1.6292-1.2708 1.1938-3.0139 2.1706-3.8736 2.1706-2.1682 0-4.1563 2.65-3.4226 4.562.534 1.3916.9345 1.3315 3.2467-.4873 1.4507-1.141 3.1797-2.0747 3.8422-2.0747zm-15.7244-1.6875c2.6356-3.5733.5678-5.137-3.0402-2.2989-1.3889 1.0925-2.9902 1.9864-3.5585 1.9864-1.3822 0-2.41 1.7724-1.6968 2.9263.8189 1.325 6.7744-.5515 8.2955-2.6138zm7.693.7505c2.0296-2.2426 1.287-4.2684-1.225-3.3423-1.9822.7308-3.1807 2.2388-3.2027 4.0293-.023 1.8842 2.4477 1.5009 4.4277-.687zm-19.443-.063c0-.55.9-1 2-1 1.1111 0 2-.6666 2-1.5 0-1.57-1.7383-1.9214-4.4182-.893-1.7186.6595-2.213 4.393-.5818 4.393.55 0 1-.45 1-1zm-65.607-12.5818c1.0088-2.6289.7008-3.4182-1.334-3.4182-2.3562 0-3.2744 1.2752-2.4553 3.4098.785 2.0456 3.0057 2.0506 3.7893.008zm5.8034-10.8032c6.4943-12.7298 7.7515-26.0672 2.2584-23.9593-.7158.2747-1.78-.3949-2.365-1.488-.714-1.3339-1.7273-1.8137-3.082-1.4595-1.1102.2903-2.5786.0897-3.2631-.4457-3.3585-2.627-10.7447-1.7303-10.7447 1.3044 0 .7415-.7868 1.0401-1.9436.7376-4.32-1.1297-7.0564 3.7508-7.0564 12.585 0 12.7183 2.0817 15.1466 14.2632 16.6385 3.1698.3882 6.0224 1.125 6.339 1.6374.8626 1.3956 3.2684-.9915 5.5942-5.5504zm-11.6537-23.5459c-.8182-1.324.971-2.193 2.9509-1.4332 1.3342.512 1.4033.8141.3403 1.488-1.738 1.1016-2.5852 1.0875-3.2912-.0548zm5.7906-.7358c.3667-.3666.9667-.3666 1.3334 0 .3666.3667.0667.6667-.6667.6667-.7333 0-1.0333-.3-.6667-.6667zm-33.5326 23.466c.9342-.9341 1.988-.9159 4.7484.0823 5.917 2.1396 9.7084-11.9265 5.3897-19.9959-1.227-2.2926-20.4522-2.2869-24.7391.007-1.3913.7446-2.8428.8487-3.9497.2832-2.4216-1.237-30.4092.4957-45.25 2.8015-16.3506 2.5404-19.2195 2.8752-20.4837 2.39-.7227-.2773-1.611-.0235-1.9742.564-.4075.6594.4004 1.0682 2.1113 1.0682 1.824 0 3.523.9402 4.9694 2.75 2.3684 2.9633 3.1456 2.8497 3.6622-.535.5315-3.4829 1.3966-3.5647 3.7687-.3562 2.6177 3.5406 6.089 5.1317 10.9463 5.0174 3.4952-.0822 5.429.1535 16.2435 1.9796 10.6747 1.8026 24.471 2.3673 26.8414 1.0987 1.818-.973 2.368-.8966 3.1114.4318.534.9542 2.211 1.62 4.1034 1.629 1.7602.008 3.8753.4515 4.7003.9847 2.0453 1.3217 4.3583 1.2417 5.8007-.2007zm58.3493-26.2993c0-.5225-.4837-1.1112-1.075-1.3083-.5912-.1971-1.075.3916-1.075 1.3083 0 .9167.4838 1.5054 1.075 1.3083.5913-.197 1.075-.7858 1.075-1.3083zm-20.15-2c0-.275-.225-.5-.5-.5s-.5.225-.5.5.225.5.5.5.5-.225.5-.5zm52 182.5c0-.7333.3-1.0333.6667-.6667.3666.3667.3666.9667 0 1.3334-.3667.3666-.6667.0667-.6667-.6667zm36-4.5c0-.275.225-.5.5-.5s.5.225.5.5-.225.5-.5.5-.5-.225-.5-.5zm-13-5c0-.275.225-.5.5-.5s.5.225.5.5-.225.5-.5.5-.5-.225-.5-.5zm65.5445-81.428c-.7053-1.1412 1.8719-2.072 5.7373-2.072 1.8252 0 2.7243.3598 2.1682.8678-1.4222 1.2991-7.294 2.1936-7.9055 1.2042zm11.4555-3.572c0-.275.225-.5.5-.5s.5.225.5.5-.225.5-.5.5-.5-.225-.5-.5zm10.5-3.5c.34-.55.843-1 1.118-1 .275 0 .222.45-.118 1-.34.55-.843 1-1.118 1-.275 0-.222-.45.118-1zm-21.6875-7.683c.7219-.289 1.5844-.2534 1.9167.0788.3323.3323-.2584.5686-1.3125.5252-1.165-.048-1.402-.285-.6042-.6041zm30.1875-.199c0-.55.45-1.278 1-1.618.55-.3399 1-.168 1 .382s-.45 1.2781-1 1.618c-.55.34-1 .168-1-.382zm-36.5-5.118c.34-.55.843-1 1.118-1 .275 0 .222.45-.118 1-.34.55-.843 1-1.118 1-.275 0-.222-.45.118-1zm-23.5-8.845c0-.4648.9-1.6595 2-2.655 2.2716-2.0558 3.016.0841.8 2.3-1.3942 1.3942-2.8 1.5724-2.8.355zm21.0378-3.1143c1.9042-1.6277 3.9122-2.9594 4.4622-2.9594.55 0-.558 1.3317-2.4622 2.9594-1.9042 1.6276-3.9122 2.9593-4.4622 2.9593-.55 0 .558-1.3317 2.4622-2.9593zm14.068-1.6224c.6688-1.605 2.2687-3.9092 3.5552-5.1203 1.2864-1.2111 2.3459-3.0111 2.3543-4 .0287-3.3731 1.532-4.5563 4.8598-3.8254 1.7187.3775 3.1249.9052 3.1249 1.1726 0 1.9417-2.4946 4.198-5.875 5.3135-2.786.9195-4.3525 2.1764-5.1688 4.1472-.6443 1.5553-1.8228 3.3685-2.619 4.0292-1.2498 1.0373-1.2814.8026-.2315-1.7168zm-29.5817-3.9183c3.044-8.856 4.0815-11.412 5.8477-14.4056 1.2764-2.1634 2.1862-2.9204 2.4736-2.0582.25.7501-.0629 1.5363-.6954 1.7471-.6325.2109-1.15 1.6352-1.15 3.1652s-.9 3.926-2 5.3244c-1.1 1.3984-2 2.948-2 3.4437 0 .4956-.7117 1.7747-1.5816 2.8423-1.5594 1.9138-1.572 1.913-.8943-.059zm27.6907-6.75c.6109-1.7875 2.1625-4.817 3.448-6.7321 1.2855-1.9152 2.3372-4.0527 2.3372-4.75 0-.6973.6302-1.2679 1.4004-1.2679 2.7929 0 1.0836 5.6443-3.2918 10.8704-5.0462 6.027-5.3636 6.1803-3.8938 1.8796zm-18.2148-14.75c0-.55.4766-1 1.059-1 .5825 0 .781.45.441 1s-.8165 1-1.059 1c-.2426 0-.441-.45-.441-1zm7.3333-.6667c.3667-.3666.9667-.3666 1.3334 0 .3666.3667.0667.6667-.6667.6667-.7333 0-1.0333-.3-.6667-.6667zm-10.3333-4.3333c-.7931-.4902-1.1101-1.2232-.7044-1.629.4058-.4057 1.2627-.2127 1.9044.429 1.511 1.511.6676 2.3542-1.2 1.2zm-6-5c0-.7333.3-1.0333.6667-.6667.3666.3667.3666.9667 0 1.3334-.3667.3666-.6667.0667-.6667-.6667zm10.3333.3333c.3667-.3666.9667-.3666 1.3334 0 .3666.3667.0667.6667-.6667.6667-.7333 0-1.0333-.3-.6667-.6667zm100.6667-4.8333c0-.275.225-.5.5-.5s.5.225.5.5-.225.5-.5.5-.5-.225-.5-.5zm-130.8804-4.1288c-1.2343-.8645-3.0037-1.3978-3.9319-1.185-.9282.2128-2.6545-.6128-3.836-1.8346-2.391-2.4723-2.0291-3.7845.6483-2.3516.9554.5113 2.029.6376 2.386.2808 2.2834-2.2835 9.614-.969 9.614 1.7238 0 3.9243-2.0577 5.3437-4.8804 3.3666zm108.8954-3.3432c-.597-1.1154-2.0877-2.028-3.3128-2.028-1.2251 0-3.0723-1.125-4.105-2.5-2.1175-2.8198-3.5972-3.2311-3.5972-1 0 .825.45 1.5 1 1.5s1 .45 1 1-1.125 1-2.5 1-2.5-.4904-2.5-1.0898c0-1.2517-5.1152-6.9102-6.2467-6.9102-.4143 0-.7533.9322-.7533 2.0714 0 1.1393-.675 2.7465-1.5 3.5715-.825.825-1.5 1.0536-1.5.508 0-.5456-1.35-1.2885-3-1.6509-1.65-.3624-3-1.3093-3-2.1042 0-.7949-1.2222-1.91-2.7161-2.478-1.8571-.706-2.324-1.275-1.4764-1.7988.9139-.5648.6694-1.2726-.93-2.6926-1.1933-1.0595-2.3363-1.4764-2.5399-.9264-.859 2.3206-2.2772 3.8937-2.9257 3.2452-.3833-.3833-.109-1.4053.6097-2.2712 2.0744-2.4995-.8177-4.8822-4.313-3.5533-1.7347.6595-2.847.6645-3.2486.0146-.336-.5436-1.3152-.8639-2.176-.7118-.9888.1747-1.9738-.9042-2.6746-2.9294-2.5602-7.3986-5.155-6.9365-3.5325.629.6151 2.8682.812 5.5214.4374 5.896-1.2034 1.2034-6.5143.7395-6.5143-.569 0-.6876-.8449-1.25-1.8776-1.25-1.0326 0-2.4377-.675-3.1224-1.5-.6847-.825-1.7007-1.5-2.2578-1.5-1.4551 0-5.7422-4.8473-5.7422-6.4926 0-2.077-1.9253-2.8657-2.614-1.0709-.9205 2.3987-8.386-2.3045-8.386-5.283 0-2.6497-4.2537-3.4687-5.9989-1.155-1.3313 1.765-2.1938 2.0642-4.0939 1.4206-1.324-.4485-2.792-.7105-3.2625-.5822-1.42.3872-3.6447-1.9644-3.6447-3.8524 0-1.8677-2.549-3.3813-4.0902-2.4288-.5004.3092-.9098-.3643-.9098-1.4968 0-2.6229-1.6109-2.6546-3-.059-1.2765 2.3852-4.4117 2.5552-8.4342.4576-1.6139-.8416-3.59-1.2785-4.3915-.971-1.1997.4604-1.2339.2902-.1933-.9637 1.0591-1.2761.9449-1.5229-.705-1.5229-2.6708 0-8.2992-2.8969-8.9566-4.61-.2933-.7645-1.1077-1.39-1.8098-1.39-.702 0-1.5122-.9018-1.8004-2.0041-.3368-1.2879-1.0656-1.7963-2.0393-1.4227-.8505.3264-2.4721-.3754-3.6963-1.5996-1.1995-1.1995-2.6968-2.2685-3.3273-2.3754-.6305-.1069-2.2713-.8278-3.6463-1.602-1.375-.7743-5.6637-3.0026-9.5305-4.952-3.8668-1.9493-8.6343-4.7817-10.5944-6.2942-1.9601-1.5125-3.9924-2.75-4.5161-2.75-1.0168 0-3.5302-1.7793-8.9372-6.327-2.3348-1.9637-3.9812-2.6302-5.3915-2.1826-1.451.4605-2.0303.1971-2.0303-.923 0-1.0052-.8967-1.5674-2.5-1.5674-1.375 0-2.5-.45-2.5-1s-.6545-1-1.4545-1c-.8 0-2.5796-1.125-3.9546-2.5s-3.1954-2.5-4.0454-2.5c-.85 0-1.5455-.45-1.5455-1s-1.5423-1-3.4274-1c-2.433 0-3.9788-.7009-5.3276-2.4156-1.3427-1.707-2.3173-2.1515-3.3225-1.5153-2.0261 1.2823-2.9225 1.1406-2.9225-.462 0-.7662.675-1.6521 1.5-1.9687 2.2203-.852 1.8326-2.9586-.4354-2.3655-1.119.2926-2.1604-.08-2.4686-.8834-.3145-.8195-1.968-1.3895-4.0307-1.3895-1.9236 0-4.9752-.627-6.7814-1.3933-4.4485-1.8873-14.0207-4.5994-16.3718-4.6385-1.0516-.0175-2.7856-.6925-3.8532-1.5-3.8945-2.9456-11.4113.537-11.5273 5.3408-.0174.72-.5041 1.017-1.0817.66-.6557-.4052-.0908-1.9065 1.504-3.9975 1.6146-2.1167 2.1639-3.5897 1.4933-4.0041-1.5814-.9774-6.1484.429-5.7057 1.757.4433 1.33-3.1206 5.2299-3.9873 4.3632-.3185-.3185-.0812-1.6719.5273-3.0074 1.1284-2.4766-.602-5.4272-2.4963-4.2564-.4414.2728-2.8236.079-5.2939-.4304-7.6823-1.5845-11.9913-1.8985-11.9913-.8737 0 .5392-.7053.9803-1.5674.9803-1.1637 0-1.3892-.5795-.8758-2.25.3804-1.2375.3549-1.9316-.0568-1.5425-.4116.3891-1.48-.1634-2.3742-1.2277-2.0222-2.407-10.6359-4.035-9.941-1.8789.248.7695 2.333 1.823 4.633 2.3412 2.9563.6659 4.1822 1.4547 4.1822 2.691 0 2.7882-1.9645 3.249-4.3395 1.0177-1.2108-1.1375-2.7175-1.7336-3.367-1.3322-1.761 1.0883-22.1113.0301-24.1958-1.2581-.6037-.3732-1.0977-1.552-1.0977-2.6195 0-2.055-3.6973-2.768-5.55-1.0706-.5423.497-3.4974.344-6.8858-.3562-6.7459-1.394-14.5642-.8737-14.5642.9693 0 .822 1.8864 1.2252 5.75 1.2288 14.6264.014 18.195.8042 18.2347 4.0377.0172 1.4081-3.082 1.6918-4.5347.415-2.3022-2.0234-10.6477-.0888-10.0412 2.3278.7463 2.9734-1.5994 4.9272-4.9163 4.0947-1.3935-.3497-3.4243-.1592-4.513.4235-1.4049.7518-2.5773.7395-4.0387-.0427-1.7285-.925-2.0095-.827-1.75.6111.4435 2.457-1.8972 2.9209-2.6571.5267-.3623-1.1416-1.216-1.7815-1.9837-1.4869-.7412.2845-1.6448.0365-2.0079-.551-1.0692-1.73-3.268-1.2245-3.8177.8778-.59 2.256-4.3254 2.46-6.8115.3719-2.1281-1.7874-7.9074-.6524-7.9282 1.5571-.013 1.3766-.156 1.4027-.935.1712-.762-1.2046-1.323-1.2379-3.273-.1943-1.603.858-3.1383.9659-4.815.3385-1.354-.5066-3.3617-.5633-4.4617-.126-1.1.4373-4.5326.8267-7.628.8653-4.6592.0582-5.8982.4577-7.1976 2.3203-1.5206 2.18-1.5711 2.1862-1.622.201-.0842-3.2934-17.0524-7.5749-17.0524-4.3028 0 1.258 6.4214 3.911 8.7076 3.5975.9858-.1351 1.9002.2043 2.032.7543.1468.6132-3.4286 1-9.2438 1-5.2158 0-9.486-.3863-9.4895-.8584-.003-.4721-1.0798-.589-2.3919-.2597-1.5123.3796-2.8402.051-3.6274-.8976-1.09-1.3134-1.4472-1.2597-2.9202.4387-2.381 2.7454-44.0355 2.9655-46.754.247-1.205-1.205-1.764-1.3162-2.0658-.411-.5026 1.508-4.874 1.6536-5.777.1925-.4404-.7126-1.0404-.723-1.8725-.0324-.6734.5589-2.5357.7784-4.1384.4877-5.486-.9948-4.6508-2.3157 2.2813-3.6086 9.6478-1.7994 10.7798-2.0635 11.7596-2.7437.55-.3818 3.025-1.2558 5.5-1.9421 2.475-.6864 5.9275-1.6839 7.6721-2.2167 1.7447-.5329 4.7803-.8605 6.746-.7281 1.9655.1323 4.1155-.3012 4.7778-.9635.6623-.6622 2.2575-1.204 3.545-1.204s5.135-.8473 8.55-1.8829c3.415-1.0355 9.2747-2.44 13.0216-3.121 3.747-.681 8.5627-2.0837 10.7017-3.1171 2.139-1.0335 5.4043-1.879 7.256-1.879 1.8517 0 5.6893-.6898 8.528-1.5328 2.8386-.843 6.7224-1.4275 8.6306-1.299 2.0442.1377 4.2094-.4195 5.2704-1.356 2.8823-2.5444 7.917-3.2549 8.6951-1.2271.7426 1.9351 10.3726 1.41 11.6362-.6346.3747-.6062 2.6586-1.3629 5.0754-1.6814 2.4168-.3186 5.3831-1.2209 6.592-2.005 1.2088-.7842 3.4588-1.3418 5-1.239 4.4442.2962 5.3021.0668 5.3021-1.4182 0-1.5423 1.7557-2.4594 7-3.6564 1.925-.4394 6.2-1.4735 9.5-2.2981 6.9958-1.7482 16.294-2.0952 29.25-1.0916 6.6707.5167 9.25.399 9.25-.4222 0-.703-2.009-1.1509-5.25-1.1705-6.6265-.0401-10.579-2.4076-5.7794-3.4617 4.07-.894 19.203.3832 25.5294 2.1544 2.75.77 9.2138 1.6345 14.364 1.9212 5.9516.3313 10.2175 1.0804 11.706 2.0558 1.2882.844 2.6993 1.3236 3.136 1.0659.9511-.5613 15.3513 1.701 20.294 3.1882 1.925.5793 10.025 2.9044 18 5.167 7.975 2.2625 15.85 4.7011 17.5 5.419 1.65.718 5.5272 1.8229 8.616 2.4554 3.0887.6325 6.4637 1.792 7.5 2.5765 2.1924 1.66 5.5622 1.912 6.9541.52.9405-.9405 17.7667 3.4927 22.0553 5.8108 1.031.5573 2.6621 1.257 3.6246 1.555 3.4841 1.0782 1.8798 2.8446-2 2.202-2.0625-.3416-4.938-.6125-6.3901-.6019-1.4521.0106-2.9005-.6591-3.2186-1.4883-.7312-1.9054-5.6413-2.0176-5.6413-.1288 0 .7583 1.35 1.9379 3 2.6213 9.5574 3.9588-.2623 3.4464-13.2588-.692-2.6174-.8333-5.4462-1.2514-6.2864-.929-.84.3224-3.4236-.0745-5.7411-.8819-5.2383-1.825-9.015-1.9348-8.4958-.247.5785 1.8801 8.841 5.6618 12.473 5.7087 1.7551.0227 3.4703.493 3.8116 1.0452.3413.5523 2.3484.787 4.4603.5216 2.7954-.3512 3.9941-.0803 4.4071.996.344.8963 1.8826 1.4784 3.9076 1.4784 1.8371 0 4.2138.6607 5.2814 1.4682 1.0676.8075 3.0307 1.4825 4.3624 1.5 1.3317.0175 3.1317.6384 4 1.3798.8683.7413 3.8287 1.9099 6.5787 2.5967 2.75.6869 7.3787 2.1641 10.286 3.2828 2.9072 1.1187 5.5297 1.7902 5.8277 1.4921.6419-.6418-6.595-5.7196-8.1515-5.7196-.5905 0-2.5985-1.125-4.4622-2.5-1.8637-1.375-4.2245-2.5-5.2462-2.5-2.0488 0-9.7339-4.0932-9.7461-5.191-.0152-1.362 1.9436-1.8597 3.7016-.9405 5.7414 3.0019 15.234 7.1332 16.4134 7.1436.7575.0066 3.332 1.1294 5.7209 2.4952 4.3436 2.4831 4.3436 2.4831 6.1426.2614 1.9888-2.456 4.5028-1.7567 9.1074 2.5331 1.17 1.09 3.09 2.0856 4.2668 2.2124 1.1768.1268 2.7021.288 3.3896.3582.6875.0702 1.25.6944 1.25 1.387 0 .6928.9 1.8216 2 2.5085 1.1855.7404 2 .8384 2 .2406 0-1.837 3.9608-1.0449 5.2415 1.0483.6922 1.1312 2.7265 2.9713 4.5206 4.089 1.7942 1.1178 4.5715 3.3417 6.1718 4.942 1.8061 1.8061 3.508 2.6798 4.4878 2.3039.868-.3331 1.5783-.0978 1.5783.5228 0 1.9696 4.7249 3.5588 6.4137 2.1572 1.1903-.9879 2.316-.7283 5.8675 1.353 5.2846 3.097 6.7035 3.2328 6.0086.5753-.6706-2.5643 2.068-2.7196 3.9035-.2213 2.2692 3.0888 11.367 10.2213 13.0377 10.2213.8813 0 1.7738.5145 1.9835 1.1434.2812.8437.9221.8539 2.4452.0387 1.5834-.8474 2.5036-.7718 3.9522.3248 2.7108 2.0523 3.1646 1.8397 2.6838-1.257-.4098-2.6396-.3641-2.672 1.1387-.8088.861 1.0676 1.5656 2.3051 1.5656 2.75 0 1.1892 2.7741.9866 3.1804-.2323.4996-1.4989 6.8196 1.8508 6.8196 3.6144 0 .7847.9 1.4268 2 1.4268 1.1515 0 2 .6666 2 1.5714 0 1.4286.1429 1.4286 1.5714 0 1.7388-1.7387 4.4286-2.1104 4.4286-.6118 0 2.4395 8.0107 9.0717 10.7276 8.8814 1.5248-.1067 4.2126.5603 5.9727 1.4824 3.9532 2.071 5.2997 2.1158 5.2997.1766 0-.825-.45-1.5-1-1.5s-1-.45-1-1c0-1.9342 2.6562-.9683 5.5 2 1.5808 1.65 3.465 3 4.187 3 .7222 0 1.3267.5625 1.3434 1.25.017.6937.484.4712 1.0497-.5 1.0746-1.845 3.9199-2.4223 3.9199-.7953 0 .525 1.6875 1.2593 3.75 1.6316 2.0625.3723 4.4835 1.0546 5.38 1.5163 1.8034.9286 7.3025 10.7982 6.4767 11.624-1.2071 1.2072-3.4669-.8136-4.0919-3.659-.6887-3.136-2.5148-4.2742-2.5148-1.5676 0 .825-.45 1.5-1 1.5s-1 .8735-1 1.941c0 2.18-2.1812 4.0153-2.7487 2.313-.6348-1.9045-8.8355-10.254-10.0712-10.254-2.0603 0-1.2715 4.7819 1.1015 6.6774 1.2549 1.0025 2.8783 3.8365 3.6076 6.298 1.425 4.8087 7.7405 12.0246 10.5245 12.0246 2.326 0 3.2655 3.0404 1.2823 4.1503-2.1818 1.221-1.1692 3.6572 3.0982 7.4533 2.1915 1.9494 3.0765 3.3583 2.38 3.7888-.6098.3769-1.6817-.2322-2.382-1.3536-.7003-1.1213-1.84-2.0388-2.5327-2.0388-.6927 0-1.2595-.6712-1.2595-1.4915 0-.8204-.9-2.0536-2-2.7406-1.1-.687-2-1.7373-2-2.3341 0-1.37-4.2684-5.4338-5.7075-5.4338-2.3182 0-2.3978 5.7072-.1203 8.636 1.0027 1.2894-3.9657 1.2277-6.0742-.0755-2.9798-1.8415-1.4797 4.7087 1.5928 6.9554 1.0861.7941 1.2528 1.401.5109 1.8595-.6058.3743-1.5898-.232-2.1867-1.3474zm-11.3483-9.6947c-.3667-.3666-.9667-.3666-1.3334 0-.3666.3667-.0667.6667.6667.6667.7333 0 1.0333-.3.6667-.6667zm-2.9924-2.8411c.518-1.5778-3.5786-3.6573-5.8099-2.9492-1.9292.6124-1.939.7171-.2426 2.5916 1.794 1.9823 5.448 2.1982 6.0525.3576zm-15.6743-.9922c0-.275-.225-.5-.5-.5s-.5.225-.5.5.225.5.5.5.5-.225.5-.5zm-33-8c0-.275-.225-.5-.5-.5s-.5.225-.5.5.225.5.5.5.5-.225.5-.5zm6-8c0-.825-.45-1.5-1-1.5s-1 .675-1 1.5.45 1.5 1 1.5 1-.675 1-1.5zm45.623-4.3055c-2.469-2.469-3.4093 1.2757-.9943 3.9598 1.8713 2.0798 1.8713 2.0798 2.2076-.1652.185-1.2348-.361-2.9423-1.2132-3.7946zm-35.623-2.6945c0-.275-.225-.5-.5-.5s-.5.225-.5.5.225.5.5.5.5-.225.5-.5zm60-3.559c0-.5175-.45-.941-1-.941s-1 .7016-1 1.559c0 .8575.45 1.281 1 .941.55-.3399 1-1.0415 1-1.559zm-19-.441c0-.275-.225-.5-.5-.5s-.5.225-.5.5.225.5.5.5.5-.225.5-.5zm3-3c0-.825-.45-1.5-1-1.5s-1 .675-1 1.5.45 1.5 1 1.5 1-.675 1-1.5zm-74.0865-3.6617c-.79-1.4762-1.4054-1.8625-1.6756-1.052-.439 1.3173 1.7006 4.6086 2.4856 3.8235.2412-.2412-.1233-1.4883-.81-2.7715zm58.5865.1617c.34-.55-.11-1-1-1s-1.34.45-1 1c.34.55.79 1 1 1 .21 0 .66-.45 1-1zm-10.6581-4c-2.334-3.157-3.8431-3.8446-3.8401-1.75.001.9595 3.78 4.006 5.7781 4.6586.154.0503-.7181-1.2586-1.938-2.9086zM344.797 75.1196c-.3667-.3666-.6667-.0667-.6667.6667 0 .7333.3 1.0333.6667.6667.3666-.3667.3666-.9667 0-1.3334zm-12.6667-6.8333c0-.275-.225-.5-.5-.5s-.5.225-.5.5.225.5.5.5.5-.225.5-.5zm67.6667-7.1667c-.3667-.3666-.9667-.3666-1.3334 0-.3666.3667-.0667.6667.6667.6667.7333 0 1.0333-.3.6667-.6667zM106.1303 42.2863c0-.275-.225-.5-.5-.5s-.5.225-.5.5.225.5.5.5.5-.225.5-.5zm52.5094-4.8832c1.4195-1.038 2.3296-1.1098 3.6457-.2879 1.932 1.2066 3.424.4172 2.386-1.2624-.3625-.5865-2.32-1.0734-4.3501-1.0818-4.4702-.0185-6.6841-1.2573-5.8999-3.301.7692-2.0043-1.331-2.7137-5.8587-1.979-3.683.5977-3.683.5977-1.3077 2.4391 1.9892 1.5422 2.1362 1.9964.9043 2.7945-1.6006 1.0369-1.5069 1.2206 1.471 2.8838 2.757 1.54 6.747 1.449 9.0094-.2053zm-22.0521-.5477c.3164-.512.0964-1.2269-.4889-1.5886-1.48-.9147-4.232.284-3.4728 1.5125.7816 1.2646 3.1985 1.311 3.9617.0761zm105.5427-3.1087c0-1.0295-3.9461-2.3476-4.7179-1.5759-.9991.9992 1.8107 3.5171 3.291 2.949.7848-.301 1.4269-.919 1.4269-1.373zm10.6667 1.373c-.3667-.3667-.9667-.3667-1.3334 0-.3666.3666-.0667.6666.6667.6666.7333 0 1.0333-.3.6667-.6666zm49.3333-1.2744c0-1.1798-1.9503-2.442-2.6667-1.7256-.7163.7163.5459 2.6666 1.7257 2.6666.5176 0 .941-.4234.941-.941zm28.8087-1.6789c-.8648-.8647-2.413-1.3955-3.4405-1.1796-1.559.3277-1.3716.6602 1.1318 2.008 3.4603 1.8632 4.5936 1.4566 2.3087-.8284zm-9.8087.179c0-.2426-.45-.7192-1-1.059-.55-.34-1-.1416-1 .4409s.45 1.059 1 1.059 1-.1984 1-.441zm-115.5-2.559c0-1.1119-1.1008-1.4777-4.2532-1.4135-4.7824.0973-6.4095 1.0535-4.2178 2.4788 2.2845 1.4856 8.471.7076 8.471-1.0654zm24.5 1c0-.55-.45-1-1-1s-1 .45-1 1 .45 1 1 1 1-.45 1-1zm-37-1.5c1.0552-1.2715.8265-1.5-1.5-1.5-2.3265 0-2.5551.2285-1.5 1.5.6847.825 1.3597 1.5 1.5 1.5.1403 0 .8153-.675 1.5-1.5zm-5.3333-2.1667c-.3667-.3667-.6667-.0667-.6667.6666 0 .7334.3 1.0334.6667.6667.3666-.3667.3666-.9667 0-1.3333zm-7.6667-.8334c0-.825-.675-1.5-1.5-1.5-2.6025 0-1.759 1.9708 1.25 2.921.1375.0435.25-.596.25-1.421zm27.5-3.5c.34-.55.1415-1-.441-1-.5824 0-1.059.45-1.059 1s.1984 1 .441 1c.2425 0 .719-.45 1.059-1zm-22.5-9c0-.55-.45-1-1-1s-1 .45-1 1 .45 1 1 1 1-.45 1-1zm8 .059c0-1.1798-1.9503-2.442-2.6667-1.7256-.7163.7163.5459 2.6666 1.7257 2.6666.5176 0 .941-.4234.941-.941zm34.656-1.5512c-1.3681-2.9495-3.656-3.3194-3.656-.5911 0 1.8437 1.209 2.8372 3.656 3.0044.8745.0597.8745-.5277 0-2.4133zm-16.156.5293c2.7107-1.1146.8723-1.7043-7.7374-2.4818-3.7056-.3346-7.4181-.8696-8.25-1.1888-.9588-.368-1.5126.001-1.5126 1.0075 0 .9186 1.1592 1.8436 2.75 2.1944 1.5125.3336 3.2.7567 3.75.9401 1.9348.6454 9.0226.3416 11-.4714zm7.5-.037c-1.9701-1.2733-4.2869-1.2733-3.5 0 .34.55 1.604.993 2.809.9846 1.7813-.0124 1.9105-.1966.691-.9847zM391.797 151.1195c-1.2038-1.2037-.6972-4.1076.818-4.689 1.9956-.7658 3.833 2.6381 2.2685 4.2025-1.3142 1.3142-2.1302 1.4429-3.0865.4865zm150.3333-1.8333c0-.275.225-.5.5-.5s.5.225.5.5-.225.5-.5.5-.5-.225-.5-.5zm-153.921-2.0833c.048-1.165.2849-1.402.6041-.6042.2889.7219.2534 1.5844-.0789 1.9167-.3323.3323-.5686-.2584-.5252-1.3125zm155.921.0833c0-.275.225-.5.5-.5s.5.225.5.5-.225.5-.5.5-.5-.225-.5-.5zm-206.607-3.0818c.3339-.87.607-1.9528.607-2.4064 0-.4535.8893-.592 1.9761-.3078 1.5915.4162 1.7793.8846.9648 2.4064-1.2482 2.3323-4.4307 2.6084-3.5479.3078zm48.607-.4772c0-.5825.45-.7809 1-.441.55.34 1 .8165 1 1.059 0 .2426-.45.441-1 .441s-1-.4765-1-1.059zm154.4309-.0528c-.378-.6115-.067-1.5046.691-1.9847 1.09-.6904 1.0122-.876-.3719-.8882-2.3913-.0209-2.2141-1.6607.249-2.3048 2.5073-.6557 3.2423.4799 2.4232 3.7435-.678 2.7014-1.8584 3.2673-2.9913 1.4342zm-153.4309-2.3882c0-.275.225-.5.5-.5s.5.225.5.5-.225.5-.5.5-.5-.225-.5-.5zm150.75-8.615c-1.5125-1.1285-2.75-2.9143-2.75-3.9684 0-1.25-.6957-1.9166-2-1.9166-1.4667 0-2-.6667-2-2.5 0-2.82 2.0715-3.3237 4.0187-.9774.7295.879 2.0494 1.2732 3.1225.9326 1.6265-.5162 1.8588-.0192 1.8588 3.9774 0 2.5121.45 4.5674 1 4.5674s1 .45 1 1c0 1.4848-1.1805 1.175-4.25-1.115zm4.25-6.885c0-.7333.3-1.0333.6667-.6667.3666.3667.3666.9667 0 1.3334-.3667.3666-.6667.0667-.6667-.6667zm-116-4c0-.55.675-1 1.5-1s1.5.45 1.5 1-.675 1-1.5 1-1.5-.45-1.5-1zm-18.0124-3.5132c-1.885-2.0066-2.1093-2.7626-1.112-3.75.9932-.9835 1.4464-.887 2.2131.4717.5303.9396 1.5692 1.4763 2.3087 1.1925 1.7909-.6872 3.043 2.7027 1.3865 3.7538-1.8875 1.1976-2.2094 1.0857-4.7963-1.668zm-36.9876-17.9868c0-.275.225-.5.5-.5s.5.225.5.5-.225.5-.5.5-.5-.225-.5-.5zm127-1.5c0-.7333.3-1.0333.6667-.6667.3666.3667.3666.9667 0 1.3334-.3667.3666-.6667.0667-.6667-.6667zm5.4045-2.1545c-.442-.7153-.2743-.883.441-.441 1.1527.7125 1.5477 1.5955.7135 1.5955-.2425 0-.762-.5195-1.1545-1.1545zm-23.4045-11.3455c0-.275.225-.5.5-.5s.5.225.5.5-.225.5-.5.5-.5-.225-.5-.5zm-139-1c0-.275.225-.5.5-.5s.5.225.5.5-.225.5-.5.5-.5-.225-.5-.5zm115-1.5c0-.7333.3-1.0333.6667-.6667.3666.3667.3666.9667 0 1.3334-.3667.3666-.6667.0667-.6667-.6667zm-123-3.059c0-.5825.45-.7809 1-.441.55.34 1 .8165 1 1.059 0 .2426-.45.441-1 .441s-1-.4765-1-1.059zm-7-2.941c0-.55.6484-1 1.441-1 .7925 0 1.719.45 2.059 1 .34.55-.3085 1-1.441 1-1.1324 0-2.059-.45-2.059-1zm-7-6.5c0-.275.225-.5.5-.5s.5.225.5.5-.225.5-.5.5-.5-.225-.5-.5zm112-.5c0-.55.45-1 1-1s1 .45 1 1-.45 1-1 1-1-.45-1-1zm-118-1.5c-.6944-.8367-.8027-1.5-.2449-1.5.55 0 1.5602.675 2.2449 1.5.6944.8368.8027 1.5.2449 1.5-.55 0-1.5602-.675-2.2449-1.5zm-9.1875-4.183c.7219-.289 1.5844-.2534 1.9167.0788.3323.3323-.2584.5686-1.3125.5252-1.165-.048-1.402-.285-.6042-.6041zm-8.9806-1.6718c-2.0175-.6299-4.005-1.4827-4.4167-1.8952-.4117-.4125-1.5735-.75-2.5819-.75-1.0083 0-1.8333-.45-1.8333-1s1.125-1 2.5-1 2.5.3975 2.5.8834c0 .9284 3.8338 2.454 5.4355 2.163 1.809-.3288 5.5645 1.0027 5.5645 1.9727 0 1.2297-2.4387 1.1025-7.1681-.374zm-14.5819-4.351c-1.2375-.2383-2.25-.852-2.25-1.3637 0-1.375 2.2269-1.0735 4.4411.6013 1.9671 1.4878 1.8273 1.5365-2.1911.7625zm-2.6116-6.7942c-.4204-1.0955.1231-1.5 2.0154-1.5 2.1898 0 2.3983.2323 1.3462 1.5-.6847.825-1.5916 1.5-2.0155 1.5-.4238 0-1.0295-.675-1.3461-1.5zm-10.433-1.966c-1.067-1.3564-2.2246-2.1814-2.5726-1.8334-.348.348-.6328.1078-.6328-.534 0-.6416-.9-1.1666-2-1.1666s-2-.4645-2-1.0322-1.0125-1.4392-2.25-1.9366c-2.25-.9044-2.25-.9044-.081-.9678 2.2172-.0648 8.5634 2.8344 9.1644 4.1866.1833.4125 1.5558.75 3.05.75 3.799 0 5.571 1.9324 3.3318 3.6334-2.5086 1.9057-3.8371 1.6627-6.0098-1.0995zm-191.872.7994c.3666-.3667.9666-.3667 1.3333 0 .3666.3666.0667.6666-.6667.6666-.7333 0-1.0333-.3-.6667-.6666zm183.6666-1.8334c0-.275.225-.5.5-.5s.5.225.5.5-.225.5-.5.5-.5-.225-.5-.5zm-90-1.559c0-.5825.45-.7809 1-.441.55.34 1 .8165 1 1.059 0 .2426-.45.441-1 .441s-1-.4765-1-1.059zm84 .559c0-.275.225-.5.5-.5s.5.225.5.5-.225.5-.5.5-.5-.225-.5-.5zM368.726 44.175c-.4526-1.1794-.1913-1.4475.9748-1 .8762.3362 1.7813.6113 2.0113.6113.23 0 .4182.45.4182 1 0 1.629-2.733 1.1382-3.4043-.6113zm-174.5957.1113c0-.275.225-.5.5-.5s.5.225.5.5-.225.5-.5.5-.5-.225-.5-.5zm170 0c0-.275.225-.5.5-.5s.5.225.5.5-.225.5-.5.5-.5-.225-.5-.5zm-128-1.5c0-.55-.675-1-1.5-1s-1.5-.6836-1.5-1.519c0-1.1476.6724-1.3606 2.75-.871 3.424.8071 4.675 1.8933 3.8039 3.3029-.8434 1.3646-3.5539 1.431-3.5539.0871zm-24.6667-1.6666c.3667-.3667.9667-.3667 1.3334 0 .3666.3666.0667.6666-.6667.6666-.7333 0-1.0333-.3-.6667-.6666zm-17.5208-2.0165c.7219-.2889 1.5844-.2533 1.9167.079.3323.3322-.2584.5686-1.3125.5252-1.165-.048-1.402-.285-.6042-.6042zm10.1875.1831c0-.275.225-.5.5-.5s.5.225.5.5-.225.5-.5.5-.5-.225-.5-.5zm150 0c0-.275.225-.5.5-.5s.5.225.5.5-.225.5-.5.5-.5-.225-.5-.5zm6.5-.5c-.34-.55.0835-1 .941-1 .8574 0 1.559.45 1.559 1s-.4234 1-.941 1c-.5175 0-1.219-.45-1.559-1zm-171.6875-.683c.7219-.289 1.5844-.2534 1.9167.0789.3323.3322-.2584.5686-1.3125.5252-1.165-.048-1.402-.285-.6042-.6042zm-69.8125-19.817c0-.275.225-.5.5-.5s.5.225.5.5-.225.5-.5.5-.5-.225-.5-.5z"/>
</svg>
