<svg xmlns="http://www.w3.org/2000/svg" width="608.9552" height="552.2471" viewBox="0 0 161.1194 146.1154">
  <g stroke-width="10.793">
    <path d="M104.1012 31.1147c.0032-.1767.0067-.353.0067-.5304C104.108 13.6931 90.4148 0 73.5236 0 58.9672 0 46.7872 10.1693 43.6978 23.7908c-2.881-1.6126-6.1997-2.5365-9.7363-2.5365-11.035 0-19.9806 8.9457-19.9806 19.9807 0 .451.0205.897.0497 1.3407C5.8382 45.6164 0 53.5017 0 62.7524 0 74.636 9.6336 84.2698 21.5174 84.2698h76.7403c14.8547 0 26.8969-12.0422 26.8969-26.8969 0-12.8475-9.0084-23.5895-21.0534-26.2582z"/>
    <path d="M161.1194 49.8801c0 12.6173-10.23 22.8472-22.8472 22.8472h-12.5397c2.5496-4.5454 4.006-9.782 4.006-15.3537 0-7.2078-2.4967-14.2535-7.0351-19.8392-3.7062-4.5596-8.636-7.9977-14.1336-9.909-.6383-7.617-3.7168-14.5532-8.442-20.019 4.5736-4.0201 10.572-6.4568 17.138-6.4568 14.3451 0 25.975 11.6299 25.975 25.9786 0 .148-.0035.2997-.0035.4513 10.23 2.264 17.8821 11.3901 17.8821 22.3006z"/>
  </g>
  <path d="M65.163 73.3171h5v53.3718h-5z" paint-order="stroke fill markers"/>
  <path fill="none" d="M5.0431 110.5342h124.3296v35.5812H5.0431Z" paint-order="stroke fill markers"/>
  <path d="M1.1578 110.1252H27.946v26.7881H1.158zm52.8242 0H80.77v26.7881H53.982zm52.8512 0h26.7881v26.7881h-26.788z" paint-order="stroke fill markers"/>
  <path d="M12.2197 94.3157h5v25.6715h-5zm106.3334 0h5v25.6715h-5z" paint-order="stroke fill markers"/>
  <path d="M120.4855 94.3101v5H16.181v-5z" paint-order="stroke fill markers"/>
</svg>
