<?xml version="1.0" encoding="UTF-8" standalone="no"?>
<!-- Created with Inkscape (http://www.inkscape.org/) -->

<svg
   width="608.9552"
   height="552.24713"
   viewBox="0 0 161.1194 146.11539"
   version="1.1"
   id="svg46084"
   sodipodi:docname="infra.svg"
   xmlns:inkscape="http://www.inkscape.org/namespaces/inkscape"
   xmlns:sodipodi="http://sodipodi.sourceforge.net/DTD/sodipodi-0.dtd"
   xmlns="http://www.w3.org/2000/svg"
   xmlns:svg="http://www.w3.org/2000/svg">
  <sodipodi:namedview
     id="namedview46086"
     pagecolor="#ffffff"
     bordercolor="#000000"
     borderopacity="0.25"
     inkscape:showpageshadow="2"
     inkscape:pageopacity="0.0"
     inkscape:pagecheckerboard="0"
     inkscape:deskcolor="#d1d1d1"
     inkscape:document-units="mm"
     showgrid="false" />
  <defs
     id="defs46081" />
  <g
     inkscape:label="Layer 1"
     inkscape:groupmode="layer"
     id="layer1"
     transform="translate(-78.593071,-107.24709)">
    <g
       id="g48019">
      <g
         id="g48770">
        <g
           id="g49542">
          <g
             id="g52573">
            <g
               id="g62144">
              <g
                 id="g46068"
                 style="fill:#000000;stroke:none;stroke-width:10.793;stroke-dasharray:none;filter:url(#filter28636)"
                 transform="matrix(0.35263448,0,0,0.35263448,78.593071,68.822271)">
                <path
                   style="fill:#000000;stroke:none;stroke-width:10.793;stroke-dasharray:none"
                   d="m 295.21,197.2 c 0.009,-0.501 0.019,-1.001 0.019,-1.504 0,-47.9 -38.831,-86.731 -86.731,-86.731 -41.279,0 -75.819,28.838 -84.58,67.466 -8.17,-4.573 -17.581,-7.193 -27.61,-7.193 -31.293,0 -56.661,25.368 -56.661,56.661 0,1.279 0.058,2.544 0.141,3.802 C 16.556,238.324 0,260.685 0,286.918 c 0,33.7 27.319,61.019 61.019,61.019 h 217.62 c 42.125,0 76.274,-34.149 76.274,-76.274 0,-36.433 -25.546,-66.895 -59.703,-74.463 z"
                   id="path19124" />
                <path
                   style="fill:#000000;stroke:none;stroke-width:10.793;stroke-dasharray:none"
                   d="m 456.902,250.415 c 0,35.78 -29.01,64.79 -64.79,64.79 h -35.56 c 7.23,-12.89 11.36,-27.74 11.36,-43.54 0,-20.44 -7.08,-40.42 -19.95,-56.26 -10.51,-12.93 -24.49,-22.68 -40.08,-28.1 -1.81,-21.6 -10.54,-41.27 -23.94,-56.77 12.97,-11.4 29.98,-18.31 48.6,-18.31 40.68,0 73.66,32.98 73.66,73.67 0,0.42 -0.01,0.85 -0.01,1.28 29.01,6.42 50.71,32.3 50.71,63.24 z"
                   id="path19126" />
              </g>
              <rect
                 style="fill:#000000;stroke-width:11.1219;stroke-linecap:round;paint-order:stroke fill markers"
                 id="rect46816"
                 width="5"
                 height="53.371761"
                 x="143.75612"
                 y="180.56422" />
              <path
                 style="fill:none;stroke:none;stroke-width:10;stroke-linecap:round;paint-order:stroke fill markers"
                 d="M 83.636208,217.78131 H 207.96582 v 35.58117 H 83.636208 Z"
                 id="rect47910" />
              <rect
                 style="fill:#000000;stroke:none;stroke-width:10;stroke-linecap:round;stroke-dasharray:none;paint-order:stroke fill markers"
                 id="rect48000"
                 width="26.788128"
                 height="26.788118"
                 x="79.750908"
                 y="217.37231" />
              <rect
                 style="fill:#000000;stroke:none;stroke-width:10;stroke-linecap:round;stroke-dasharray:none;paint-order:stroke fill markers"
                 id="rect48004"
                 width="26.788128"
                 height="26.788118"
                 x="132.57504"
                 y="217.37231" />
              <rect
                 style="fill:#000000;stroke:none;stroke-width:10;stroke-linecap:round;stroke-dasharray:none;paint-order:stroke fill markers"
                 id="rect48006"
                 width="26.788128"
                 height="26.788118"
                 x="185.42628"
                 y="217.37231" />
              <rect
                 style="fill:#000000;stroke-width:7.71345;stroke-linecap:round;paint-order:stroke fill markers"
                 id="rect49525"
                 width="5"
                 height="25.671469"
                 x="90.81282"
                 y="201.56284" />
              <rect
                 style="fill:#000000;stroke-width:7.71345;stroke-linecap:round;paint-order:stroke fill markers"
                 id="rect49527"
                 width="5"
                 height="25.671469"
                 x="197.14619"
                 y="201.56284" />
              <rect
                 style="fill:#000000;stroke-width:15.548;stroke-linecap:round;paint-order:stroke fill markers"
                 id="rect49529"
                 width="5"
                 height="104.30456"
                 x="201.55722"
                 y="-199.07858"
                 transform="rotate(90)" />
            </g>
          </g>
        </g>
      </g>
    </g>
  </g>
</svg>
