<?xml version="1.0" encoding="UTF-8" standalone="no"?>
<!-- Created with Inkscape (http://www.inkscape.org/) -->

<svg
   width="501.3204"
   height="501.32214"
   viewBox="0 0 132.64102 132.64148"
   version="1.1"
   id="svg5"
   sodipodi:docname="phone.svg"
   xmlns:inkscape="http://www.inkscape.org/namespaces/inkscape"
   xmlns:sodipodi="http://sodipodi.sourceforge.net/DTD/sodipodi-0.dtd"
   xmlns="http://www.w3.org/2000/svg"
   xmlns:svg="http://www.w3.org/2000/svg">
  <sodipodi:namedview
     id="namedview7"
     pagecolor="#ffffff"
     bordercolor="#000000"
     borderopacity="0.25"
     inkscape:showpageshadow="2"
     inkscape:pageopacity="0.0"
     inkscape:pagecheckerboard="0"
     inkscape:deskcolor="#d1d1d1"
     inkscape:document-units="mm"
     showgrid="false"
     inkscape:zoom="0.914906"
     inkscape:cx="63.39449"
     inkscape:cy="632.8519"
     inkscape:window-width="2560"
     inkscape:window-height="1369"
     inkscape:window-x="-8"
     inkscape:window-y="-8"
     inkscape:window-maximized="1"
     inkscape:current-layer="layer1" />
  <defs
     id="defs2" />
  <g
     inkscape:label="Layer 1"
     inkscape:groupmode="layer"
     id="layer1"
     transform="translate(-16.85121,-61.764743)">
    <path
       style="fill:#000000;stroke-width:20;stroke-linecap:round;paint-order:stroke fill markers"
       d="m 68.93903,182.71736 c -0.04212,0.0108 -0.08432,0.0218 -0.126404,0.0329 0.04213,-0.0112 0.0842,-0.0222 0.126404,-0.0329 z"
       id="path355" />
    <path
       style="fill:#000000;stroke-width:20;stroke-linecap:round;paint-order:stroke fill markers"
       d="m 66.772159,174.16828 c -0.06083,0.0153 -0.121322,0.0303 -0.181961,0.0461 0.06063,-0.0156 0.121304,-0.0307 0.181961,-0.0461 z"
       id="path353" />
    <path
       style="fill:#000000;stroke-width:20;stroke-linecap:round;paint-order:stroke fill markers"
       d="m 64.570947,165.76391 c -0.05798,0.0147 -0.116336,0.0295 -0.174313,0.0442 0.05808,-0.0147 0.116226,-0.0295 0.174313,-0.0442 z"
       id="path351" />
    <path
       style="fill:#000000;stroke-width:20;stroke-linecap:round;paint-order:stroke fill markers"
       d="m 75.063987,171.23187 c -0.667588,0.25188 -1.337784,0.49536 -2.010111,0.73046 0.672327,-0.2351 1.342523,-0.47858 2.010111,-0.73046 z"
       id="path349" />
    <path
       style="fill:#000000;stroke-width:20;stroke-linecap:round;paint-order:stroke fill markers"
       d="m 73.690429,162.15624 c -0.595203,0.24138 -1.192606,0.47492 -1.792329,0.70122 0.599723,-0.2263 1.197126,-0.45984 1.792329,-0.70122 z"
       id="path347" />
    <path
       style="fill:#000000;stroke-width:20;stroke-linecap:round;paint-order:stroke fill markers"
       d="m 81.001861,168.73833 c -0.651471,0.30226 -1.306172,0.59626 -1.963339,0.88173 0.657167,-0.28547 1.311868,-0.57947 1.963339,-0.88173 z"
       id="path345" />
    <path
       style="fill:#000000;stroke-width:20;stroke-linecap:round;paint-order:stroke fill markers"
       d="m 86.781511,165.79131 c -0.632386,0.35264 -1.268343,0.69681 -1.907423,1.03265 0.63908,-0.33584 1.275037,-0.68001 1.907423,-1.03265 z"
       id="path343" />
    <path
       style="fill:#000000;stroke-width:20;stroke-linecap:round;paint-order:stroke fill markers"
       d="m 92.375901,162.39083 c -0.610391,0.40303 -1.224698,0.79734 -1.842744,1.18356 0.618046,-0.38622 1.232353,-0.78053 1.842744,-1.18356 z"
       id="path341" />
    <path
       style="fill:#000000;stroke-width:20;stroke-linecap:round;paint-order:stroke fill markers"
       d="m 90.69721,152.652 c -0.533693,0.39224 -1.071351,0.77643 -1.612523,1.15358 0.541172,-0.37715 1.07883,-0.76134 1.612523,-1.15358 z"
       id="path339" />
    <path
       style="fill:#000000;stroke-width:20;stroke-linecap:round;paint-order:stroke fill markers"
       d="m 105.06942,163.9935 c -0.63422,0.51729 -1.27357,1.02568 -1.91766,1.52449 0.64409,-0.49881 1.28345,-1.00722 1.91766,-1.52449 z"
       id="path337" />
    <path
       style="fill:#000000;stroke-width:20;stroke-linecap:round;paint-order:stroke fill markers"
       d="m 112.42508,157.71362 c -0.53151,0.52869 -1.06607,1.05194 -1.60632,1.56615 0.54059,-0.51385 1.07481,-1.03746 1.60632,-1.56615 z"
       id="path335" />
    <path
       style="fill:#000000;stroke-width:20;stroke-linecap:round;paint-order:stroke fill markers"
       d="m 112.26213,157.50386 c -0.008,0.007 -0.0159,0.0152 -0.0238,0.023 l 3.6e-4,3.6e-4 c -0.52997,0.52714 -1.06326,1.04912 -1.60193,1.56178 0.53894,-0.51238 1.07196,-1.03464 1.60193,-1.56178 0.008,-0.008 0.0156,-0.0157 0.0234,-0.0236 z"
       id="path333" />
    <path
       style="fill:#000000;stroke-width:20;stroke-linecap:round;paint-order:stroke fill markers"
       d="m 100.14121,145.24334 c -0.0319,0.0304 -0.0636,0.0606 -0.0953,0.0911 l 3.8e-4,3.7e-4 c -0.424714,0.42188 -0.851498,0.84017 -1.282933,1.25082 0.431721,-0.41037 0.858308,-0.82889 1.282933,-1.25082 0.0312,-0.031 0.0628,-0.0614 0.0946,-0.0918 z"
       id="path331" />
    <path
       style="fill:#000000;stroke-width:20;stroke-linecap:round;paint-order:stroke fill markers"
       d="m 93.857253,138.86662 c -0.0472,0.046 -0.09503,0.0908 -0.141683,0.13746 l 3.46e-4,3.7e-4 c 0.04682,-0.0465 0.09381,-0.0924 0.140996,-0.13818 z"
       id="path329" />
    <path
       style="fill:#000000;stroke-width:20;stroke-linecap:round;paint-order:stroke fill markers"
       d="m 93.927803,138.79692 c -0.0074,0.008 -0.01564,0.0155 -0.02346,0.0234 -0.0074,0.008 -0.0156,0.0157 -0.02337,0.0235 0.0081,-0.007 0.01588,-0.0152 0.02377,-0.023 0.0084,-0.008 0.01523,-0.0159 0.02306,-0.0238 z"
       id="path327" />
    <path
       style="fill:#000000;stroke-width:20;stroke-linecap:round;paint-order:stroke fill markers"
       d="m 112.54311,157.22443 c -0.0384,0.0396 -0.0767,0.0795 -0.11587,0.1187 -0.0467,0.0467 -0.0938,0.0924 -0.14102,0.13817 0.0472,-0.0459 0.095,-0.0907 0.14172,-0.13747 0.0392,-0.0393 0.0775,-0.0789 0.11587,-0.1187 z"
       id="path325" />
    <path
       style="fill:#000000;stroke-width:20;stroke-linecap:round;paint-order:stroke fill markers"
       d="m 106.53875,151.12574 c -0.0355,0.0366 -0.0705,0.0734 -0.10565,0.10992 0.0354,-0.0365 0.0705,-0.0734 0.10565,-0.10992 z"
       id="path323" />
    <path
       style="fill:#000000;stroke-width:20;stroke-linecap:round;paint-order:stroke fill markers"
       d="m 94.090437,138.63061 -3.48e-4,-3.6e-4 c -0.04691,0.0472 -0.09236,0.0951 -0.138581,0.1428 0.04645,-0.0474 0.09236,-0.0951 0.139225,-0.14211 z"
       id="path321" />
    <path
       style="fill:#000000;stroke-width:20;stroke-linecap:round;paint-order:stroke fill markers"
       d="m 100.42077,144.96093 -3.7e-4,-3.7e-4 c -0.0469,0.0472 -0.0916,0.0958 -0.13784,0.14353 -0.0153,0.0159 -0.0311,0.0318 -0.0468,0.0475 -0.008,0.008 -0.0156,0.0157 -0.0235,0.0234 0.008,-0.007 0.0159,-0.0152 0.0238,-0.023 0.0157,-0.0158 0.0309,-0.0319 0.0465,-0.0479 0.0463,-0.0476 0.0923,-0.0951 0.13858,-0.1428 z"
       id="path319" />
    <path
       style="fill:#000000;stroke-width:20;stroke-linecap:round;paint-order:stroke fill markers"
       d="m 112.61295,157.15312 -3.6e-4,-3.7e-4 c -0.008,0.008 -0.0152,0.0159 -0.023,0.0238 0.007,-0.008 0.0155,-0.0155 0.0235,-0.0234 z"
       id="path317" />
    <path
       style="fill:#000000;stroke-width:20;stroke-linecap:round;paint-order:stroke fill markers"
       d="m 112.7993,157.33948 c -0.0438,0.0441 -0.086,0.0889 -0.1291,0.13329 0.0431,-0.0444 0.0859,-0.0888 0.1291,-0.13329 z"
       id="path315" />
    <path
       style="fill:#000000;stroke-width:20;stroke-linecap:round;paint-order:stroke fill markers"
       d="m 107.77752,149.47847 c -0.45976,0.48365 -0.92891,0.96184 -1.40174,1.4375 0.47283,-0.47566 0.94226,-0.95357 1.40174,-1.4375 z"
       id="path313" />
    <path
       style="fill:#000000;stroke-width:20;stroke-linecap:round;paint-order:stroke fill markers"
       d="m 107.96882,149.65987 c -0.46124,0.48529 -0.93205,0.96501 -1.40646,1.44225 0.47441,-0.47724 0.94543,-0.95675 1.40646,-1.44225 z"
       id="path311" />
    <path
       style="fill:#000000;stroke-width:20;stroke-linecap:round;paint-order:stroke fill markers"
       d="m 97.604773,134.82835 c -0.390891,0.45523 -0.788673,0.90705 -1.193075,1.35455 0.404402,-0.4475 0.802184,-0.89932 1.193075,-1.35455 z"
       id="path309" />
    <path
       style="fill:#000000;stroke-width:20;stroke-linecap:round;paint-order:stroke fill markers"
       d="m 106.95518,137.52615 c -0.41002,0.52939 -0.82744,1.05504 -1.25261,1.57638 0.42516,-0.52135 0.84262,-1.04696 1.25261,-1.57638 z"
       id="path307" />
    <path
       style="fill:#000000;stroke-width:20;stroke-linecap:round;paint-order:stroke fill markers"
       d="m 110.44008,132.65782 c -0.36445,0.55199 -0.73671,1.10066 -1.11632,1.64543 0.37961,-0.54477 0.75187,-1.09344 1.11632,-1.64543 z"
       id="path305" />
    <path
       style="fill:#000000;stroke-width:20;stroke-linecap:round;paint-order:stroke fill markers"
       d="m 104.82267,124.75517 c -0.29654,0.50197 -0.59985,1.00058 -0.90987,1.49669 0.31002,-0.49611 0.61333,-0.99472 0.90987,-1.49669 z"
       id="path303" />
    <path
       style="fill:#000000;stroke-width:20;stroke-linecap:round;paint-order:stroke fill markers"
       d="m 116.97721,120.59645 c -0.25813,0.59434 -0.52398,1.18598 -0.79732,1.77515 0.27334,-0.58917 0.53918,-1.18082 0.79732,-1.77515 z"
       id="path301" />
    <path
       style="fill:#000000;stroke-width:20;stroke-linecap:round;paint-order:stroke fill markers"
       d="m 110.6458,112.22094 c -0.18872,0.53971 -0.38465,1.07774 -0.58685,1.61364 0.20219,-0.5359 0.39814,-1.07394 0.58685,-1.61364 z"
       id="path299" />
    <path
       style="fill:#000000;stroke-width:20;stroke-linecap:round;paint-order:stroke fill markers"
       d="m 129.31556,111.44299 c -0.0214,0.081 -0.0414,0.16224 -0.0621,0.24336 0.0207,-0.0812 0.0404,-0.16243 0.0621,-0.24336 z"
       id="path297" />
    <g
       id="g578">
      <g
         id="g581">
        <path
           style="fill:#000000;stroke-width:20;stroke-linecap:round;paint-order:stroke fill markers"
           d="m 145.97485,61.764743 c 0.17048,0.645057 0.34002,1.290212 0.49807,1.937756 0.2013,0.824744 0.39212,1.651564 0.57331,2.480025 0.18118,0.828455 0.35236,1.658476 0.51339,2.490252 0.16106,0.831781 0.31221,1.665414 0.45311,2.500116 0.14093,0.834713 0.27168,1.67091 0.39246,2.50816 0.12078,0.837248 0.23148,1.675697 0.33215,2.515098 0.10066,0.839404 0.19133,1.679426 0.27187,2.520581 0.0805,0.841153 0.15081,1.683172 0.21121,2.525694 0.0604,0.84252 0.11063,1.685479 0.15091,2.52899 0.0403,0.84351 0.0705,1.68745 0.0906,2.53154 0.0201,0.844079 0.0303,1.68837 0.0303,2.532639 1e-5,0.844281 -0.0102,1.688551 -0.0303,2.532641 -0.0201,0.844089 -0.0504,1.68805 -0.0906,2.53154 -0.0403,0.843489 -0.0909,1.686825 -0.15127,2.529349 -0.0604,0.842535 -0.13068,1.684536 -0.21123,2.525701 -0.0805,0.841157 -0.17118,1.681175 -0.27185,2.520575 -0.10069,0.8394 -0.21137,1.67786 -0.33215,2.51511 -0.1208,0.83725 -0.25155,1.67343 -0.39245,2.50815 -0.14094,0.83471 -0.29204,1.66836 -0.45312,2.50013 -0.16107,0.83177 -0.33219,1.66178 -0.5134,2.49024 -0.18119,0.82848 -0.37241,1.65491 -0.57373,2.47965 -0.15808,0.64756 -0.32721,1.29305 -0.49768,1.93812 l -3.5e-4,-3.7e-4 c -0.0452,0.17088 -0.0856,0.34275 -0.13236,0.51328 l 3.7e-4,3.7e-4 -0.004,0.017 c -0.22192,0.82051 -0.45305,1.63903 -0.69461,2.45517 -0.24157,0.81615 -0.4936,1.63002 -0.75529,2.4413 -0.26169,0.81127 -0.53335,1.61995 -0.81523,2.42593 -0.28181,0.80601 -0.57354,1.60919 -0.87551,2.4095 -0.30203,0.80031 -0.61405,1.59769 -0.93617,2.39196 -0.32212,0.79427 -0.65422,1.58552 -0.99647,2.37332 -0.34223,0.78784 -0.69475,1.57261 -1.05713,2.35359 -0.36236,0.781 -0.73493,1.55829 -1.11741,2.33204 -0.38251,0.77373 -0.77507,1.5436 -1.17769,2.30973 -0.40264,0.76614 -0.81525,1.52862 -1.23803,2.28674 -0.42278,0.75811 -0.85576,1.51214 -1.29866,2.26185 -0.44288,0.74973 -0.8959,1.49501 -1.35895,2.23594 -0.46303,0.74092 -0.93606,1.47752 -1.41923,2.20926 -0.48318,0.73174 -0.97662,1.45857 -1.47989,2.18075 -0.5033,0.72216 -1.01643,1.43932 -1.53984,2.1515 -0.52343,0.71221 -1.05657,1.41935 -1.60013,2.1212 -0.54354,0.70184 -1.09746,1.3983 -1.66114,2.0894 -0.56369,0.69111 -1.13763,1.37693 -1.72142,2.05689 -0.58383,0.67997 -1.17742,1.3541 -1.78136,2.02252 -0.60396,0.66844 -1.21795,1.33094 -1.84204,1.98746 -0.56323,0.59251 -1.13772,1.17877 -1.71741,1.76126 l 0.19,0.19 -0.37417,0.37417 -0.18963,-0.18962 c -0.58299,0.58015 -1.16971,1.15441 -1.76274,1.71816 -0.65646,0.62408 -1.31897,1.23808 -1.98743,1.84199 -0.66845,0.60396 -1.34257,1.19758 -2.02253,1.78137 -0.67998,0.58382 -1.3658,1.15775 -2.05688,1.72144 -0.6911,0.5637 -1.38756,1.11759 -2.08942,1.66114 -0.70182,0.54354 -1.40897,1.07673 -2.12119,1.60013 -0.71219,0.52341 -1.42934,1.03654 -2.1515,1.53984 -0.72218,0.50328 -1.44903,0.99672 -2.18076,1.47988 -0.73175,0.48317 -1.46833,0.95622 -2.209265,1.41925 -0.740892,0.46301 -1.486197,0.91607 -2.235931,1.35895 -0.749683,0.44289 -1.503733,0.87588 -2.261868,1.29866 -0.758101,0.42276 -1.520587,0.83539 -2.286704,1.23799 -0.766136,0.40264 -1.536003,0.79521 -2.309742,1.17773 -0.773746,0.38248 -1.551061,0.75505 -2.332046,1.1174 -0.780979,0.36237 -1.565397,0.71454 -2.353207,1.05677 -0.78781,0.34224 -1.579065,0.67435 -2.373341,0.99647 -0.794255,0.32209 -1.59162,0.63418 -2.391949,0.93616 -0.800309,0.30198 -1.603523,0.59368 -2.409499,0.87551 -0.805979,0.28184 -1.614693,0.55352 -2.425944,0.81525 -0.811246,0.2617 -1.625143,0.5137 -2.44127,0.75529 -0.816156,0.24155 -1.634547,0.4732 -2.455182,0.69464 l -0.01675,0.004 c -0.170128,0.0458 -0.341276,0.0865 -0.511559,0.13155 h -7.35e-4 c -0.645435,0.17059 -1.291285,0.33987 -1.939223,0.49805 -0.824714,0.20131 -1.65121,0.3925 -2.479653,0.57369 -0.828448,0.18116 -1.65849,0.35233 -2.490241,0.5134 -0.831775,0.16105 -1.665437,0.31218 -2.500123,0.4531 -0.834708,0.14092 -1.670926,0.27166 -2.50816,0.39245 -0.837235,0.12077 -1.675713,0.2315 -2.515093,0.33214 -0.8394,0.10067 -1.67944,0.19135 -2.520579,0.27186 -0.841158,0.0805 -1.683198,0.15082 -2.5257,0.21122 -0.842518,0.0604 -1.685502,0.11066 -2.529002,0.15091 -0.843481,0.0403 -1.687454,0.0705 -2.531534,0.0906 -0.844079,0.0201 -1.688368,0.0303 -2.532636,0.0303 -0.84428,0 -1.688565,-0.0102 -2.53264,-0.0303 -0.844082,-0.0201 -1.688057,-0.0504 -2.531545,-0.0906 -0.84349,-0.0403 -1.686477,-0.0905 -2.528992,-0.15092 -0.842507,-0.0604 -1.684549,-0.13067 -2.525701,-0.21119 -0.841135,-0.0805 -1.68118,-0.17122 -2.520569,-0.27188 -0.839389,-0.10066 -1.677869,-0.21135 -2.515105,-0.33214 -0.837234,-0.1208 -1.673451,-0.25153 -2.50816,-0.39245 -0.834685,-0.14093 -1.66798,-0.29242 -2.499752,-0.45346 -0.831764,-0.16107 -1.662177,-0.33187 -2.490607,-0.51306 -0.828453,-0.1812 -1.654911,-0.37242 -2.479659,-0.57374 -0.647376,-0.15803 -1.292469,-0.32726 -1.937374,-0.49768 l 2.180745,-8.13982 0.06833,-0.25321 2.214739,-8.2659 0.06797,-0.25506 2.180747,-8.13761 0.136302,-0.50903 2.180755,-8.13833 0.06796,-0.25507 2.218026,-8.27794 0.06833,-0.25394 c 0.34068,0.0892 0.678378,0.19212 1.020232,0.27544 0.962546,0.23493 1.929873,0.44639 2.900613,0.63436 0.970742,0.18795 1.944673,0.35232 2.921794,0.49329 0.977135,0.14098 1.957294,0.25863 2.938979,0.35261 0.981685,0.094 1.965148,0.16423 2.949563,0.2112 0.98443,0.047 1.969719,0.0705 2.955053,0.0705 0.985345,1e-5 1.970628,-0.0235 2.955059,-0.0705 0.984412,-0.047 1.96788,-0.11722 2.949563,-0.21119 0.981685,-0.094 1.961847,-0.21164 2.938971,-0.35263 0.977136,-0.14095 1.951435,-0.3057 2.922167,-0.49365 0.970743,-0.18796 1.937713,-0.39903 2.900243,-0.634 0.342432,-0.0836 0.680805,-0.18633 1.022037,-0.27587 0.170444,-0.0447 0.340364,-0.0916 0.51048,-0.13777 l 0.06796,0.25505 10.268197,15.53689 c 0.522904,-0.1417 1.044517,-0.28891 1.564666,-0.44286 0.54444,-0.16115 1.087465,-0.32861 1.628626,-0.50318 0.541169,-0.17456 1.080737,-0.35608 1.61839,-0.5441 0.537658,-0.188 1.073552,-0.38286 1.607433,-0.58427 0.533866,-0.20144 1.065533,-0.40927 1.595367,-0.62413 0.529833,-0.21486 1.057775,-0.43637 1.583309,-0.66466 0.525542,-0.22829 1.048822,-0.46352 1.569795,-0.70524 0.520975,-0.24173 1.039387,-0.48992 1.55555,-0.74506 0.516137,-0.25516 1.029839,-0.51742 1.540914,-0.78602 0.511071,-0.26856 1.0195,-0.54379 1.525221,-0.8258 0.505712,-0.28201 1.009008,-0.57058 1.509122,-0.866 0.500121,-0.29546 0.997337,-0.59735 1.4916,-0.90622 0.494237,-0.30889 0.985191,-0.62484 1.47332,-0.94714 0.488131,-0.3223 0.973311,-0.65086 1.455047,-0.98662 0.481729,-0.3357 0.960228,-0.67835 1.435324,-1.0275 0.47514,-0.34913 0.946674,-0.70516 1.414857,-1.06772 0.468214,-0.36258 0.933007,-0.73154 1.394032,-1.10758 0.461003,-0.376 0.918513,-0.75901 1.372096,-1.14846 0.453637,-0.38942 0.903219,-0.78542 1.349097,-1.18831 0.445875,-0.40288 0.888099,-0.81257 1.326029,-1.22888 0.37447,-0.35592 0.74421,-0.71918 1.11264,-1.08493 0.0625,-0.062 0.12616,-0.12191 0.1885,-0.18422 0.0628,-0.0628 0.12292,-0.12723 0.1857,-0.18995 0.36521,-0.36804 0.72801,-0.7379 1.08382,-1.11155 0.4163,-0.43793 0.82598,-0.88016 1.22887,-1.32603 0.4029,-0.4459 0.79888,-0.89549 1.1883,-1.34909 0.38944,-0.45362 0.7725,-0.91107 1.14847,-1.37211 0.37605,-0.46102 0.74496,-0.92586 1.10756,-1.39403 0.36257,-0.4682 0.71857,-0.93977 1.06773,-1.41485 0.34919,-0.47507 0.69178,-0.95358 1.02752,-1.43532 0.33573,-0.48174 0.6643,-0.96692 0.9866,-1.45506 0.3223,-0.48813 0.63827,-0.97905 0.94714,-1.47332 0.30887,-0.49425 0.61077,-0.99148 0.90621,-1.4916 0.29545,-0.50012 0.58401,-1.00339 0.86602,-1.50913 0.282,-0.50574 0.55722,-1.01413 0.8258,-1.52521 0.2686,-0.51108 0.53085,-1.02477 0.78602,-1.54092 0.25514,-0.51616 0.50333,-1.03456 0.74505,-1.55554 0.24178,-0.52097 0.47695,-1.04425 0.70524,-1.56979 0.2283,-0.52554 0.4498,-1.05347 0.66468,-1.58331 0.21486,-0.52985 0.42304,-1.06186 0.62447,-1.59575 0.20144,-0.53387 0.39628,-1.06975 0.58429,-1.60741 0.18806,-0.53765 0.36918,-1.07683 0.54374,-1.61804 0.1746,-0.54115 0.34236,-1.08453 0.50356,-1.62896 0.15394,-0.52003 0.30082,-1.04155 0.44255,-1.5643 l -16.33103,-9.47405 -0.25505,-0.068 c 0.0463,-0.17063 0.0935,-0.34109 0.13822,-0.512 0.0893,-0.3409 0.19226,-0.67888 0.27563,-1.02092 0.23493,-0.96255 0.44639,-1.92984 0.63434,-2.9006 0.18796,-0.970762 0.35268,-1.945017 0.49367,-2.922162 0.141,-0.977152 0.25824,-1.956901 0.35225,-2.938611 0.094,-0.981703 0.16455,-1.965493 0.21158,-2.949936 0.047,-0.984451 0.0705,-1.969709 0.0705,-2.955055 2e-5,-0.98536 -0.0236,-1.970616 -0.0705,-2.955048 -0.047,-0.984438 -0.11725,-1.967861 -0.21121,-2.949565 -0.0939,-0.981708 -0.21166,-1.961819 -0.35261,-2.938968 -0.14095,-0.977151 -0.30499,-1.951413 -0.49294,-2.922177 -0.18795,-0.970759 -0.39942,-1.938051 -0.63436,-2.9006 -0.0834,-0.341695 -0.18581,-0.679344 -0.27515,-1.019854 l 0.25359,-0.06796 8.27796,-2.218031 0.25468,-0.06833 8.13873,-2.18112 0.50901,-0.136297 8.13762,-2.180751 0.25468,-0.06833 8.26589,-2.214734 0.2536,-0.06796 z"
           id="path12198"
           sodipodi:nodetypes="cssccsscssssscccsscssscccccssccscscssssscssssssccccscssssssscsscsssssscccccscsssssscssscssssscsscccccccccccccsccssccssccccssscsssccsccsccsscscccccsscccssssssccscsccccccccsssccccsssccccccccccc" />
      </g>
    </g>
  </g>
</svg>
