<?xml version="1.0" encoding="UTF-8" standalone="no"?>
<!-- Uploaded to: SVG Repo, www.svgrepo.com, Generator: SVG Repo Mixer Tools -->

<svg
   version="1.1"
   id="Layer_1"
   width="600"
   height="733.33331"
   viewBox="0 0 18 21.999999"
   overflow="visible"
   xml:space="preserve"
   sodipodi:docname="shield.svg"
   inkscape:export-filename="..\Desktop\shield.svg"
   inkscape:export-xdpi="96"
   inkscape:export-ydpi="96"
   xmlns:inkscape="http://www.inkscape.org/namespaces/inkscape"
   xmlns:sodipodi="http://sodipodi.sourceforge.net/DTD/sodipodi-0.dtd"
   xmlns="http://www.w3.org/2000/svg"
   xmlns:svg="http://www.w3.org/2000/svg"><defs
   id="defs43912" /><sodipodi:namedview
   id="namedview43910"
   pagecolor="#ffffff"
   bordercolor="#000000"
   borderopacity="0.25"
   inkscape:showpageshadow="2"
   inkscape:pageopacity="0.0"
   inkscape:pagecheckerboard="0"
   inkscape:deskcolor="#d1d1d1"
   showgrid="false" />
<g
   id="g43907"
   style="fill:#000000"
   transform="translate(-13.278179,-6.6513461)">
	<g
   transform="translate(4,1)"
   id="g43905"
   style="fill:#000000">
		
		
		
		<g
   id="g44039"
   transform="matrix(-1,0,0,1,26.278179,5.6513461)"
   inkscape:export-filename="..\Desktop\shield.svg"
   inkscape:export-xdpi="96"
   inkscape:export-ydpi="96"><path
     fill="#85A4E6"
     d="m 8,0 -9,4 v 6 c 0,5.6 3.8,10.7 9,12 5.2,-1.3 9,-6.4 9,-12 V 4 Z m 0,11 h 7 c -0.5,4.1 -3.3,7.8 -7,8.9 V 11 H 1 V 5.3 L 8,2.2 Z"
     id="path43897"
     style="fill:#000000" /><g
     id="g44032"><path
       fill="#5C85DE"
       d="m 8,0 v 22 c 5.2,-1.3 9,-6.4 9,-12 V 4 Z m 7,11 c -0.5,4.1 -3.3,7.8 -7,8.9 V 11 Z"
       id="path43899"
       style="fill:#000000" /></g><path
     fill-rule="evenodd"
     fill="#3367D6"
     d="m 17,11 h -2 c 0,0 0,0.3 -0.1,0.6 z"
     id="path43901"
     style="fill:#000000" /><polygon
     fill-rule="evenodd"
     fill="#3367D6"
     points="1,11 1,10.4 -1,11 "
     id="polygon43903"
     style="fill:#000000" /></g>
	</g>
</g>
</svg>
