<?xml version="1.0" encoding="UTF-8" standalone="no"?>
<!-- Created with Inkscape (http://www.inkscape.org/) -->

<svg
   width="14px"
   height="14px"
   viewBox="0 0 7.408329 7.4083328"
   version="1.1"
   id="svg1424"
   xml:space="preserve"
   xmlns:inkscape="http://www.inkscape.org/namespaces/inkscape"
   xmlns:sodipodi="http://sodipodi.sourceforge.net/DTD/sodipodi-0.dtd"
   xmlns="http://www.w3.org/2000/svg"
   xmlns:svg="http://www.w3.org/2000/svg"><sodipodi:namedview
     id="namedview1426"
     pagecolor="#ffffff"
     bordercolor="#000000"
     borderopacity="0.25"
     inkscape:showpageshadow="2"
     inkscape:pageopacity="0.0"
     inkscape:pagecheckerboard="0"
     inkscape:deskcolor="#d1d1d1"
     inkscape:document-units="mm"
     showgrid="false" /><defs
     id="defs1421" /><g
     inkscape:label="Layer 1"
     inkscape:groupmode="layer"
     id="layer1"
     transform="translate(-54.997983,-50.370993)"><path
       d="m 58.698018,50.371026 a 0.26433919,0.26434572 0 0 0 -0.260183,0.267933 v 0.792958 a 0.26433919,0.26434572 0 1 0 0.528626,0 v -0.792958 a 0.26433919,0.26434572 0 0 0 -0.268443,-0.267933 z m -2.428374,1.007717 a 0.26433919,0.26434572 0 0 0 -0.18378,0.453783 l 0.560632,0.560646 a 0.26433919,0.26434572 0 1 0 0.373755,-0.373764 l -0.560632,-0.560647 a 0.26433919,0.26434572 0 0 0 -0.189975,-0.08002 z m 4.856747,0 a 0.26433919,0.26434572 0 0 0 -0.181714,0.08002 l -0.560633,0.560647 a 0.26433919,0.26434572 0 1 0 0.373755,0.373764 l 0.560632,-0.560646 a 0.26433919,0.26434572 0 0 0 -0.19204,-0.453785 z m -2.424243,0.846132 a 1.8501893,1.850235 0 0 0 -1.85019,1.850235 1.8501893,1.850235 0 0 0 1.85019,1.850235 1.8501893,1.850235 0 0 0 1.850189,-1.850235 1.8501893,1.850235 0 0 0 -1.850189,-1.850235 z m -3.436066,1.585916 a 0.26433919,0.26434572 0 1 0 0,0.528638 h 0.792938 a 0.26433919,0.26434572 0 1 0 0,-0.528638 z m 6.079193,0 a 0.26433919,0.26434572 0 1 0 0,0.528638 h 0.792939 a 0.26433919,0.26434572 0 1 0 0,-0.528638 z m -4.517064,1.866239 a 0.26433919,0.26434572 0 0 0 -0.181715,0.08002 l -0.560632,0.560646 a 0.26433919,0.26434572 0 1 0 0.373755,0.373764 l 0.560632,-0.560646 a 0.26433919,0.26434572 0 0 0 -0.19204,-0.453784 z m 3.74013,0 a 0.26433919,0.26434572 0 0 0 -0.184297,0.453782 l 0.560633,0.560646 a 0.26433919,0.26434572 0 1 0 0.373754,-0.373764 l -0.560632,-0.560646 a 0.26433919,0.26434572 0 0 0 -0.189458,-0.08002 z m -1.870323,0.77334 a 0.26433919,0.26434572 0 0 0 -0.260183,0.267932 v 0.792958 a 0.26433919,0.26434572 0 1 0 0.528626,0 V 56.718302 A 0.26433919,0.26434572 0 0 0 58.698018,56.45037 Z"
       id="path1621"
       style="stroke-width:0.264316" /></g></svg>
